<?xml version="1.0" encoding="utf-8"?>
<!-- Generator: Adobe Illustrator 16.0.0, SVG Export Plug-In . SVG Version: 6.00 Build 0)  -->
<!DOCTYPE svg PUBLIC "-//W3C//DTD SVG 1.1//EN" "http://www.w3.org/Graphics/SVG/1.1/DTD/svg11.dtd">
<svg version="1.1" id="Layer_1" xmlns="http://www.w3.org/2000/svg" xmlns:xlink="http://www.w3.org/1999/xlink" x="0px" y="0px"
	 viewBox="138.5 52.5 156 164" enable-background="new 138.5 52.5 156 164" xml:space="preserve">
<path fill="#022A3A" d="M229.319,69.146c-0.6-6.964-6.457-12.451-13.57-12.451c-7.119,0-12.973,5.487-13.572,12.451
	c-32.708,6.352-57.479,35.205-57.479,69.74c0,39.178,31.874,71.049,71.051,71.049c39.178,0,71.049-31.871,71.049-71.049
	C286.798,104.351,262.026,75.498,229.319,69.146 M215.749,61.664c4.775,0,8.654,3.885,8.654,8.657c0,4.774-3.878,8.657-8.654,8.657
	c-4.773,0-8.658-3.883-8.658-8.657C207.091,65.549,210.976,61.664,215.749,61.664 M202.667,74.111
	c1.645,5.674,6.885,9.835,13.082,9.835s11.438-4.161,13.086-9.835c27.846,5.618,49.41,28.793,52.589,57.439
	c-4.293,0.015-6.952-0.102-10.687-1.658c-5.741-2.391-10.381-7.087-15.292-12.056c-2.901-2.935-5.896-5.966-9.251-8.646
	c-9.294-7.426-19.251-11.031-30.445-11.031c-11.215,0-21.181,3.606-30.473,11.031c-3.358,2.68-6.355,5.711-9.251,8.646
	c-4.914,4.968-9.554,9.664-15.295,12.055c-3.724,1.555-6.379,1.677-10.654,1.658C153.252,102.904,174.815,79.728,202.667,74.111
	 M215.749,204.971c-23.12,0-43.503-11.936-55.313-29.969c2.548-0.584,5.108-1.68,7.292-3.174c2.547-1.738,5.716-2.777,8.477-2.777
	c2.762,0,5.93,1.039,8.478,2.777c3.341,2.285,7.557,3.648,11.281,3.648c3.721,0,7.937-1.363,11.278-3.648
	c2.547-1.738,5.718-2.777,8.477-2.777c2.762,0,5.932,1.039,8.479,2.777c3.341,2.285,7.558,3.648,11.279,3.648
	s7.939-1.363,11.279-3.648c2.547-1.738,5.717-2.777,8.479-2.777c2.76,0,5.928,1.039,8.477,2.777
	c2.199,1.504,4.774,2.605,7.345,3.186C259.239,193.039,238.862,204.971,215.749,204.971 M273.794,170.447
	c-2.834-0.291-5.557-1.537-7.282-2.717c-3.39-2.316-7.501-3.648-11.276-3.648c-3.78,0-7.891,1.332-11.281,3.648
	c-1.969,1.344-5.227,2.781-8.477,2.781c-3.252,0-6.509-1.438-8.477-2.779c-3.393-2.318-7.504-3.65-11.281-3.65
	c-3.779,0-7.887,1.332-11.279,3.65c-1.968,1.342-5.227,2.779-8.476,2.779c-3.252,0-6.511-1.438-8.479-2.779
	c-3.39-2.318-7.503-3.65-11.279-3.65c-3.775,0-7.889,1.332-11.28,3.65c-1.712,1.172-4.411,2.41-7.224,2.707
	c-4.071-7.451-6.741-15.77-7.669-24.598h37.572l0.214-2.246c0.236-2.452,0.792-4.829,1.635-7.095h52.591
	c0.845,2.266,1.402,4.643,1.635,7.095l0.216,2.246h37.571C280.538,154.674,277.864,162.994,273.794,170.447 M191.882,131.532
	c1.353-2.179,3.008-4.184,4.943-5.951c5.176-4.734,11.901-7.343,18.925-7.343c7.024,0,13.744,2.608,18.926,7.343
	c1.928,1.767,3.59,3.772,4.94,5.951H191.882z M248.331,140.875c-1.203-7.27-4.811-13.936-10.307-18.958
	c-6.1-5.575-14.008-8.646-22.275-8.646c-8.27,0-16.178,3.07-22.276,8.646c-5.498,5.021-9.104,11.688-10.306,18.958H149.7
	c-0.021-0.662-0.033-1.322-0.033-1.989c0-0.792,0.017-1.583,0.046-2.37c0.329,0,0.654,0.002,0.973,0.002
	c4.313,0,7.564-0.213,11.955-2.04c6.663-2.775,11.874-8.05,16.915-13.152c2.799-2.831,5.691-5.757,8.82-8.257
	c8.376-6.691,17.33-9.945,27.375-9.945c10.018,0,18.967,3.254,27.344,9.945c3.129,2.5,6.021,5.426,8.82,8.257
	c5.039,5.103,10.248,10.377,16.914,13.152c4.723,1.967,8.128,2.066,12.959,2.038c0.027,0.787,0.047,1.578,0.047,2.37
	c0,0.667-0.016,1.327-0.035,1.989H248.331z"/>
</svg>
