<?xml version="1.0" encoding="utf-8"?>
<!-- Generator: Adobe Illustrator 16.0.0, SVG Export Plug-In . SVG Version: 6.00 Build 0)  -->
<!DOCTYPE svg PUBLIC "-//W3C//DTD SVG 1.1//EN" "http://www.w3.org/Graphics/SVG/1.1/DTD/svg11.dtd">
<svg version="1.1" id="Layer_1" xmlns="http://www.w3.org/2000/svg" xmlns:xlink="http://www.w3.org/1999/xlink" x="0px" y="0px"
	 viewBox="20.5 121.5 571 551" enable-background="new 20.5 121.5 571 551" xml:space="preserve">
<polygon fill="#022A3A" points="104.155,463.666 105.852,467.921 79.989,478.225 87.105,496.09 82.867,497.782 74.056,475.652 "/>
<polygon fill="#022A3A" points="136.786,524.418 133.012,526.995 122.428,511.486 114.7,516.76 124.515,531.132 120.748,533.698
	110.929,519.334 103.207,524.606 113.798,540.116 110.024,542.688 96.853,523.4 123.61,505.119 "/>
<path fill="#022A3A" d="M139.141,561.847c-2.349,2.543-0.799,6.463,2.634,9.632s7.586,4.272,9.82,1.858
	c2.23-2.415,0.174-5.794-2.634-9.638c-3.945-5.376-6.754-10.584-2.57-15.107c4.056-4.389,10.357-3.173,15.268,1.358
	c5.246,4.851,6.314,11.058,2.567,15.113l-3.365-3.106c2.042-2.213,0.758-5.821-2.299-8.651c-3.4-3.136-6.759-3.818-8.811-1.603
	c-1.735,1.881-0.163,5.315,2.305,8.645c4.352,5.888,7.177,11.472,2.897,16.098c-4.27,4.627-10.991,3.268-16.275-1.608
	c-5.284-4.877-7.053-11.604-2.902-16.103L139.141,561.847z"/>
<polygon fill="#022A3A" points="211.208,585.496 208.92,589.444 198.618,583.468 184.651,607.548 180.691,605.257 194.659,581.171
	184.355,575.194 186.646,571.243 "/>
<path fill="#022A3A" d="M244.345,632.168l-4.657-1.519l-0.581-9.205l-13.372-4.338l-5.83,7.121l-4.659-1.519l22.121-26.884
	l4.875,1.588L244.345,632.168z M228.844,613.311l9.975,3.24l-0.844-14.288L228.844,613.311z"/>
<path fill="#022A3A" d="M303.048,621.811l-1.373,18.021l-4.563-0.343l0.119-1.594c-2.673,1.31-5.653,1.904-8.764,1.669
	c-9.366-0.717-16.375-8.843-15.664-18.167c0.708-9.333,8.868-16.309,18.234-15.598c4.61,0.346,8.586,2.485,11.42,5.675l-3.442,2.988
	c-2.079-2.311-4.991-3.863-8.329-4.111c-6.851-0.522-12.792,4.566-13.314,11.386c-0.514,6.828,4.587,12.753,11.444,13.275
	c3.332,0.261,6.447-0.836,8.851-2.805l0.468-6.187l-12.335-0.94l0.349-4.552L303.048,621.811z"/>
<polygon fill="#022A3A" points="353.494,602.064 354.244,606.569 335.721,609.653 337.255,618.879 354.425,616.021 355.174,620.524
	338.005,623.387 339.538,632.616 358.065,629.529 358.809,634.032 335.77,637.866 330.451,605.899 "/>
<polygon fill="#022A3A" points="417.421,583.213 416.157,588.095 411.71,586.957 414.12,577.638 418.064,575.302 434.565,603.188
	430.623,605.522 "/>
<path fill="#022A3A" d="M449.124,572.108c-2.598,0.021-4.786-1.106-6.491-3.074c-3.289-3.791-3.53-9.377,2.488-14.602
	c6.021-5.226,11.521-4.197,14.813-0.406c1.702,1.974,2.505,4.291,2.122,6.859c3.451-0.633,6.414,0.546,8.503,2.952
	c3.562,4.103,3.429,10.379-3.248,16.176c-6.68,5.791-12.91,5.039-16.472,0.935C448.746,578.534,448.001,575.435,449.124,572.108
	 M454.274,564.984c4.081-3.542,3.843-6.051,2.199-7.946c-1.646-1.901-4.279-2.697-8.357,0.839c-4.085,3.547-3.664,6.265-2.018,8.16
	C447.739,567.931,450.189,568.525,454.274,564.984 M464.321,576.564c4.772-4.137,4.665-7.549,2.783-9.723
	c-1.887-2.172-5.065-2.552-9.839,1.585c-4.778,4.146-4.848,7.344-2.963,9.524C456.187,580.114,459.548,580.709,464.321,576.564"/>
<path fill="#022A3A" d="M486.271,520.545c-2.388-0.022-5.06,1.396-6.828,3.732c-3.231,4.273-1.497,9.093,3.771,13.479
	c-0.396-2.653,0.34-5.592,2.634-8.63c4.587-6.065,11.072-6.849,15.693-3.348c4.624,3.494,5.858,10.116,1.27,16.175
	c-4.944,6.538-13.334,6.292-21.381,0.2c-8.046-6.085-10.575-14.086-5.631-20.63c2.734-3.611,6.828-5.631,10.732-5.489
	L486.271,520.545z M499.17,539.199c3.071-4.047,2.229-7.786-0.393-9.768c-2.621-1.986-6.221-1.608-9.292,2.443
	c-3.065,4.059-2.446,7.626,0.177,9.612C492.283,543.464,496.655,542.528,499.17,539.199"/>
<path fill="#022A3A" d="M516.436,503.554c2.383,0.617,5.321-0.57,7.708-5.623c2.706-5.716,1.229-8.79-1.364-10.021
	c-2.598-1.231-5.663-0.296-8.366,5.414l-0.789,1.655l-4.12-1.954l0.783-1.648c2.311-4.892,1.08-7.095-1.189-8.166
	c-2.27-1.079-4.999-0.749-7.311,4.137c-1.994,4.225-1.091,6.58,0.609,7.786l-2.642,3.769c-3.483-2.463-5.107-7.131-2.09-13.503
	c3.405-7.205,8.857-8.475,13.395-6.334c2.349,1.118,4.018,2.92,4.706,5.418c2.903-1.965,6.085-2.084,8.971-0.72
	c4.911,2.324,7.315,8.126,3.533,16.12c-3.373,7.116-8.556,9.324-13.074,8.099L516.436,503.554z"/>
<path fill="#022A3A" d="M94.15,382.852c-0.401,9.377-8.293,16.657-17.636,16.256c-9.347-0.396-16.591-8.312-16.195-17.694
	c0.2-4.624,2.197-8.66,5.287-11.6l3.101,3.339c-2.236,2.15-3.687,5.11-3.832,8.453c-0.293,6.868,4.991,12.634,11.832,12.927
	c6.836,0.291,12.59-5.014,12.883-11.876c0.142-3.342-1.054-6.419-3.1-8.752l3.373-3.066C92.698,374.03,94.344,378.274,94.15,382.852
	"/>
<path fill="#022A3A" d="M104.136,325.675l-1.262,4.734l-9.167,1.068l-3.617,13.591l7.429,5.437l-1.259,4.735L68.228,334.6
	l1.317-4.958L104.136,325.675z M86.141,342.164l2.7-10.132l-14.216,1.614L86.141,342.164z"/>
<path fill="#022A3A" d="M103.904,300.292l9.147,4.676l-2.086,4.082l-28.848-14.753l6.607-12.93
	c2.798-5.467,9.501-7.645,14.944-4.859c5.446,2.781,7.557,9.472,4.758,14.939L103.904,300.292z M101.579,280.583
	c-3.21-1.641-7.141-0.36-8.788,2.861l-4.526,8.849l11.577,5.924l4.526-8.854C106.015,286.142,104.792,282.226,101.579,280.583"/>
<polygon fill="#022A3A" points="122.696,232.053 126.243,234.924 114.442,249.526 121.714,255.41 132.661,241.874 136.207,244.741
	125.27,258.279 132.549,264.156 144.346,249.552 147.895,252.418 133.219,270.59 108.012,250.225 "/>
<path fill="#022A3A" d="M196.96,213.64c-7.994,4.93-18.439,2.474-23.352-5.49c-4.912-7.96-2.41-18.399,5.583-23.331
	c3.937-2.43,8.404-3.04,12.57-2.128l-1.027,4.447c-3.033-0.65-6.303-0.191-9.153,1.564c-5.849,3.608-7.664,11.22-4.076,17.044
	c3.597,5.83,11.209,7.62,17.058,4.015c2.851-1.757,4.729-4.471,5.512-7.479l4.427,1.077
	C203.452,207.493,200.862,211.235,196.96,213.64"/>
<path fill="#022A3A" d="M226.127,163.033c8.884-3.039,18.53,1.678,21.555,10.529c3.021,8.852-1.721,18.478-10.605,21.517
	c-8.892,3.033-18.53-1.677-21.563-10.529C212.492,175.691,217.24,166.065,226.127,163.033 M235.596,190.76
	c6.503-2.221,9.964-9.241,7.748-15.716c-2.211-6.482-9.238-9.917-15.738-7.695c-6.502,2.216-9.963,9.238-7.75,15.719
	C222.065,189.549,229.096,192.976,235.596,190.76"/>
<path fill="#022A3A" d="M269.233,152.928l12.543-1.181c8.94-0.842,16.87,5.699,17.708,14.607c0.841,8.904-5.73,16.809-14.668,17.656
	l-12.54,1.182L269.233,152.928z M274.221,157.045l2.189,23.17l7.977-0.752c6.433-0.604,11.142-6.273,10.539-12.681
	c-0.604-6.405-6.294-11.092-12.727-10.486L274.221,157.045z"/>
<path fill="#022A3A" d="M349.101,181.218c0.777,1.498,2.157,2.618,3.932,3.04c3.213,0.764,6.413-1.204,7.169-4.398l5.217-22.028
	l4.457,1.051l-5.217,22.033c-1.336,5.637-7.014,9.127-12.672,7.78c-2.99-0.703-5.4-2.636-6.787-5.121L349.101,181.218z"/>
<polygon fill="#022A3A" points="417.751,177.111 415.883,181.276 398.748,173.589 394.919,182.127 410.801,189.248 408.932,193.414
	393.05,186.292 389.221,194.825 406.356,202.515 404.488,206.678 383.176,197.118 396.438,167.551 "/>
<polygon fill="#022A3A" points="439.678,189.141 443.446,192.055 434.117,215.187 454.172,200.353 457.94,203.27 448.61,226.404
	468.659,211.565 472.429,214.484 445.356,234.503 441.588,231.583 450.887,208.491 430.863,223.286 427.096,220.375 "/>
<polygon fill="#022A3A" points="504.673,251.425 501.126,254.298 489.322,239.69 482.046,245.578 492.985,259.109 489.436,261.978
	478.499,248.44 471.222,254.331 483.025,268.929 479.475,271.804 464.791,253.633 489.992,233.26 "/>
<polygon fill="#022A3A" points="519.173,274.028 521.286,278.098 496.547,290.888 505.391,307.979 501.334,310.076 490.388,288.917
	"/>
<path fill="#022A3A" d="M543.065,333.017c1.538,5.562-1.696,11.308-7.238,12.843c-4.751,1.317-9.571-0.866-11.848-4.988
	l-9.545,10.154l-1.42-5.124l9.327-9.899l-2.122-7.681L509,331.428l-1.22-4.413l31.228-8.649L543.065,333.017z M534.604,341.447
	c3.123-0.863,4.933-4.076,4.062-7.214l-2.836-10.235l-11.215,3.104l2.833,10.238C528.317,340.474,531.482,342.311,534.604,341.447"
	/>
<polygon fill="#022A3A" points="531.27,378.335 549.53,364.147 549.885,369.681 536.104,380.326 551.111,389.155 551.46,394.686
	531.558,382.904 518.303,383.746 518.016,379.168 "/>
<path fill="#022A3A" d="M529.421,405.255c6.306,0,11.405,5.139,11.405,11.496c0,6.358-5.1,11.494-11.405,11.494
	c-6.3,0-11.405-5.136-11.405-11.494C518.016,410.394,523.121,405.255,529.421,405.255 M529.421,426.646
	c5.409,0,9.814-4.438,9.814-9.894c0-5.451-4.404-9.895-9.814-9.895c-5.403,0-9.812,4.444-9.812,9.895
	C519.609,422.208,524.018,426.646,529.421,426.646"/>
<path fill="#022A3A" d="M331.364,261.588c-1.146-13.322-12.353-23.82-25.962-23.82c-13.619,0-24.82,10.498-25.965,23.82
	c-62.577,12.152-109.969,67.355-109.969,133.428c0,74.956,60.98,135.931,135.934,135.931s135.931-60.976,135.931-135.931
	C441.333,328.943,393.941,273.74,331.364,261.588 M305.402,247.275c9.136,0,16.558,7.432,16.558,16.562
	c0,9.133-7.42,16.562-16.558,16.562c-9.131,0-16.565-7.429-16.565-16.562C288.837,254.708,296.271,247.275,305.402,247.275
	 M280.373,271.087c3.146,10.857,13.173,18.817,25.03,18.817c11.855,0,21.883-7.96,25.035-18.817
	c53.273,10.75,94.53,55.087,100.613,109.894c-8.213,0.028-13.302-0.194-20.445-3.173c-10.985-4.574-19.862-13.558-29.257-23.065
	c-5.551-5.614-11.281-11.414-17.7-16.541c-17.78-14.205-36.83-21.105-58.246-21.105c-21.457,0-40.524,6.901-58.302,21.105
	c-6.424,5.127-12.158,10.927-17.7,16.544c-9.4,9.504-18.278,18.489-29.263,23.062c-7.125,2.975-12.205,3.208-20.384,3.173
	C185.833,326.174,227.087,281.836,280.373,271.087 M305.402,521.447c-44.233,0-83.229-22.835-105.824-57.334
	c4.875-1.118,9.772-3.216,13.951-6.073c4.872-3.326,10.936-5.315,16.217-5.315c5.284,0,11.345,1.989,16.219,5.315
	c6.392,4.372,14.457,6.981,21.582,6.981c7.119,0,15.185-2.609,21.579-6.981c4.872-3.326,10.938-5.315,16.217-5.315
	c5.282,0,11.348,1.989,16.22,5.315c6.392,4.372,14.46,6.981,21.581,6.981c7.119,0,15.188-2.609,21.579-6.981
	c4.871-3.326,10.938-5.315,16.219-5.315s11.342,1.989,16.22,5.315c4.206,2.877,9.133,4.986,14.051,6.093
	C388.608,498.62,349.623,521.447,305.402,521.447 M416.453,455.398c-5.423-0.558-10.631-2.941-13.932-5.197
	c-6.485-4.433-14.352-6.98-21.575-6.98c-7.231,0-15.094,2.548-21.582,6.98c-3.766,2.57-10,5.321-16.217,5.321
	c-6.221,0-12.453-2.75-16.219-5.32c-6.488-4.434-14.355-6.981-21.582-6.981c-7.23,0-15.09,2.548-21.579,6.981
	c-3.765,2.569-10,5.32-16.216,5.32c-6.221,0-12.457-2.75-16.222-5.32c-6.486-4.434-14.355-6.981-21.579-6.981
	c-7.223,0-15.093,2.548-21.581,6.981c-3.275,2.243-8.439,4.612-13.821,5.182c-7.789-14.257-12.897-30.171-14.672-47.061h71.882
	l0.409-4.296c0.451-4.691,1.516-9.239,3.129-13.575h100.616c1.617,4.336,2.685,8.884,3.13,13.575l0.412,4.296h71.882
	C429.357,425.219,424.242,441.137,416.453,455.398 M259.74,380.945c2.587-4.167,5.754-8.004,9.458-11.386
	c9.902-9.057,22.769-14.048,36.206-14.048c13.438,0,26.295,4.991,36.209,14.048c3.688,3.381,6.868,7.219,9.452,11.386H259.74z
	 M367.738,398.819c-2.302-13.906-9.205-26.662-19.72-36.27c-11.668-10.666-26.798-16.541-42.616-16.541
	c-15.821,0-30.952,5.874-42.619,16.541c-10.518,9.606-17.418,22.362-19.717,36.27h-64.029c-0.039-1.266-0.064-2.529-0.064-3.805
	c0-1.516,0.033-3.028,0.088-4.535c0.63,0,1.251,0.005,1.861,0.005c8.253,0,14.471-0.407,22.872-3.904
	c12.747-5.31,22.716-15.4,32.36-25.163c5.356-5.415,10.888-11.015,16.875-15.796c16.025-12.803,33.156-19.029,52.373-19.029
	c19.166,0,36.288,6.226,52.314,19.029c5.985,4.781,11.521,10.381,16.875,15.796c9.641,9.762,19.607,19.853,32.359,25.163
	c9.037,3.763,15.551,3.954,24.795,3.899c0.05,1.507,0.088,3.019,0.088,4.535c0,1.275-0.028,2.54-0.066,3.805H367.738z"/>
<path fill="#022A3A" d="M532.08,417.834c1.33-0.54,2.188-1.794,2.188-3.199c0-1.873-1.561-3.448-3.408-3.448h-5.216v11.131h1.687
	v-4.241h2.863l1.804,4.241h1.788l-1.901-4.404L532.08,417.834z M530.803,416.356h-3.47v-3.454h3.527c0.548,0,1.046,0.246,1.373,0.68
	c0.34,0.456,0.429,1.033,0.264,1.583C532.293,415.869,531.59,416.356,530.803,416.356"/>
</svg>
