<?xml version="1.0" encoding="utf-8"?>
<!-- Generator: Adobe Illustrator 16.0.0, SVG Export Plug-In . SVG Version: 6.00 Build 0)  -->
<!DOCTYPE svg PUBLIC "-//W3C//DTD SVG 1.1//EN" "http://www.w3.org/Graphics/SVG/1.1/DTD/svg11.dtd">
<svg version="1.1" id="Layer_1" xmlns="http://www.w3.org/2000/svg" xmlns:xlink="http://www.w3.org/1999/xlink" x="0px" y="0px"
	 viewBox="-37.5 100.5 502 69" enable-background="new -37.5 100.5 502 69" xml:space="preserve">
<g>
	<g>
		<path fill="#093945" d="M-8.55,156.848c4.57,0,8.866-1.779,12.098-5.01c3.231-3.23,5.011-7.528,5.011-12.098
			c0-2.573-0.557-5.045-1.655-7.349c-0.479-1.005-1.061-1.968-1.729-2.864c-0.815-1.093-1.697-1.947-2.645-2.821
			c-0.781-0.719-1.231-1.479-1.312-2.323c-0.078-0.806,0.205-1.591,0.797-2.295c0.549-0.655,1.333-1.051,2.195-1.116
			c0.862-0.065,1.865,0.274,2.467,0.876c0,0,0.472,0.675-0.063,1.209c-0.533,0.534-1.271,0.124-1.271,0.124
			c-0.245-0.246-0.668-0.376-1.016-0.345c-0.348,0.03-0.683,0.212-0.908,0.479c-0.263,0.313-0.319,0.642-0.294,0.933
			c0.035,0.401,0.364,0.772,0.617,1.004c1.251,1.153,2.045,1.929,2.95,3.144c0.741,0.994,1.387,2.064,1.92,3.18
			c1.221,2.561,1.839,5.307,1.839,8.164c0,5.076-1.977,9.848-5.565,13.438c-3.589,3.588-8.361,5.564-13.437,5.564
			c-5.076,0-9.847-1.977-13.436-5.564c-3.589-3.589-5.566-8.361-5.566-13.438c0-2.856,0.619-5.603,1.84-8.164
			c0.533-1.116,1.178-2.186,1.92-3.18c0.905-1.214,1.7-1.991,2.951-3.144c0.251-0.232,0.581-0.603,0.616-1.004
			c0.025-0.291-0.031-0.619-0.294-0.933c-0.225-0.267-0.56-0.449-0.908-0.479c-0.348-0.031-0.77,0.1-1.016,0.345
			c0,0-0.662,0.39-1.175-0.124c-0.513-0.514-0.159-1.209-0.159-1.209c0.603-0.603,1.607-0.941,2.467-0.876
			c0.862,0.065,1.646,0.461,2.196,1.116c0.591,0.704,0.874,1.49,0.797,2.295c-0.081,0.844-0.532,1.604-1.312,2.323
			c-0.948,0.874-1.83,1.728-2.645,2.821c-0.668,0.896-1.25,1.859-1.729,2.864c-1.098,2.303-1.655,4.775-1.655,7.349
			c0,4.57,1.78,8.867,5.011,12.098C-17.416,155.068-13.12,156.848-8.55,156.848"/>
		<path fill="#093945" d="M-9.88,123.153c-1.65,1.65-4.081,1.608-5.601,0.088c-1.52-1.521-1.52-3.994,0-5.513
			c1.521-1.52,3.994-1.519,5.513,0l0.622,0.622l-1.339,1.339l-0.621-0.622c-0.783-0.782-2.054-0.782-2.836,0
			c-0.782,0.781-0.782,2.053,0,2.835c0.782,0.782,1.987,0.849,2.836,0l4.086-4.086c1.649-1.65,4.08-1.608,5.6-0.088
			s1.52,3.993,0,5.513c-1.521,1.52-3.993,1.519-5.512,0l-0.622-0.622l1.339-1.339l0.621,0.622c0.782,0.782,2.053,0.782,2.836,0
			c0.781-0.782,0.781-2.054,0-2.835c-0.782-0.782-1.987-0.849-2.836,0L-9.88,123.153z"/>
		<path fill="#093945" d="M-2.942,141.895c-0.789,2.341-3.001,4.026-5.608,4.026c-3.27,0-5.919-2.65-5.919-5.92
			c0-3.269,2.65-5.918,5.919-5.918c2.607,0,4.819,1.686,5.608,4.026h6.561c-0.911-5.902-6.012-10.421-12.169-10.421
			c-6.801,0-12.314,5.513-12.314,12.313c0,6.802,5.514,12.315,12.314,12.315c6.157,0,11.258-4.521,12.169-10.421H-2.942z
			 M-8.55,150.457c-5.774,0-10.455-4.682-10.455-10.457c0-5.773,4.681-10.455,10.455-10.455c4.446,0,8.241,2.776,9.753,6.688h-2.922
			c-1.329-2.404-3.89-4.033-6.831-4.033c-4.309,0-7.801,3.493-7.801,7.8c0,4.309,3.492,7.801,7.801,7.801
			c2.941,0,5.502-1.629,6.831-4.034h2.922C-0.309,147.682-4.104,150.457-8.55,150.457"/>
	</g>
	<g>
		<path fill="#093945" d="M439.798,135.071c1.712,0,3.095,1.382,3.095,3.093c0,1.71-1.383,3.094-3.095,3.094
			c-1.709,0-3.093-1.384-3.093-3.094S438.089,135.071,439.798,135.071 M439.798,140.63c1.359,0,2.466-1.106,2.466-2.465
			c0-1.358-1.106-2.465-2.466-2.465c-1.356,0-2.464,1.107-2.464,2.465C437.334,139.524,438.441,140.63,439.798,140.63
			 M438.592,136.454h1.622c0.591,0,1.083,0.492,1.083,1.083c0,0.453-0.29,0.843-0.693,1.005l0.58,1.333h-0.666l-0.541-1.258h-0.754
			v1.258h-0.629v-3.421H438.592z M439.221,137.989h0.993c0.253,0,0.454-0.203,0.454-0.453c0-0.252-0.201-0.454-0.454-0.454h-0.993
			V137.989z"/>
		<path fill="#093945" d="M26.613,146.098c-4.241,0-7.673-3.433-7.673-7.672c0-4.241,3.432-7.674,7.673-7.674
			c2.088,0,3.951,0.828,5.336,2.172l-1.449,1.469c-1.013-0.973-2.377-1.572-3.888-1.572c-3.103,0-5.606,2.502-5.606,5.605
			c0,3.102,2.503,5.604,5.606,5.604c1.511,0,2.875-0.599,3.888-1.571l1.449,1.468C30.564,145.271,28.681,146.098,26.613,146.098"/>
		<path fill="#093945" d="M45.414,130.75c4.239,0,7.674,3.433,7.674,7.674c0,4.24-3.435,7.673-7.674,7.673
			c-4.24,0-7.673-3.434-7.673-7.673C37.741,134.183,41.174,130.75,45.414,130.75 M45.414,144.028c3.104,0,5.605-2.502,5.605-5.604
			c0-3.103-2.501-5.605-5.605-5.605c-3.102,0-5.604,2.502-5.604,5.605C39.81,141.526,42.312,144.028,45.414,144.028"/>
		<polygon fill="#093945" points="62.66,134.597 62.66,145.766 60.592,145.766 60.592,131.081 62.66,131.081 70.851,142.251
			70.851,131.081 72.919,131.081 72.919,145.766 70.851,145.766 		"/>
		<polygon fill="#093945" points="88.826,145.766 86.509,145.766 80.761,131.081 82.973,131.081 87.668,143.078 92.364,131.081
			94.578,131.081 		"/>
		<polygon fill="#093945" points="112.966,131.081 112.966,133.149 104.486,133.149 104.486,137.39 112.345,137.39 112.345,139.457
			104.486,139.457 104.486,143.698 112.966,143.698 112.966,145.766 102.417,145.766 102.417,131.081 		"/>
		<path fill="#093945" d="M128.703,131.081c2.606,0,4.716,2.109,4.716,4.715c0,2.235-1.53,4.076-3.598,4.571l3.267,5.398h-2.399
			l-3.185-5.272h-3.599v5.272h-2.068v-14.685H128.703z M131.351,135.796c0-1.468-1.18-2.647-2.648-2.647h-4.798v5.275h4.798
			C130.171,138.424,131.351,137.267,131.351,135.796"/>
		<polygon fill="#093945" points="152.982,131.081 152.982,133.149 147.604,133.149 147.604,145.766 145.536,145.766
			145.536,133.149 140.159,133.149 140.159,131.081 		"/>
		<rect x="160.88" y="131.081" fill="#093945" width="2.068" height="14.687"/>
		<path fill="#093945" d="M172.524,145.766v-14.685h7.384c2.317,0,4.199,1.882,4.199,4.2c0,1.074-0.414,2.046-1.076,2.791
			c1.159,0.745,1.924,2.048,1.924,3.517c0,2.316-1.883,4.177-4.199,4.177H172.524z M179.909,137.39c1.18,0,2.13-0.931,2.13-2.109
			c0-1.181-0.951-2.132-2.13-2.132h-5.316v4.241H179.909z M174.592,139.457v4.241h6.165c1.179,0,2.13-0.93,2.13-2.109
			c0-1.179-0.951-2.132-2.13-2.132H174.592z"/>
		<polygon fill="#093945" points="193.728,131.081 195.798,131.081 195.798,143.698 204.485,143.698 204.485,145.766
			193.728,145.766 		"/>
		<polygon fill="#093945" points="222.932,131.081 222.932,133.149 214.451,133.149 214.451,137.39 222.311,137.39 222.311,139.457
			214.451,139.457 214.451,143.698 222.932,143.698 222.932,145.766 212.385,145.766 212.385,131.081 		"/>
		<path fill="#093945" d="M250.32,146.098c-4.24,0-7.676-3.433-7.676-7.672c0-4.241,3.436-7.674,7.676-7.674
			c2.089,0,3.949,0.828,5.335,2.172l-1.447,1.469c-1.015-0.973-2.38-1.572-3.89-1.572c-3.102,0-5.604,2.502-5.604,5.605
			c0,3.102,2.503,5.604,5.604,5.604c1.51,0,2.875-0.599,3.89-1.571l1.447,1.468C254.27,145.271,252.389,146.098,250.32,146.098"/>
		<path fill="#093945" d="M269.93,130.75c4.24,0,7.674,3.433,7.674,7.674c0,4.24-3.434,7.673-7.674,7.673
			c-4.238,0-7.674-3.434-7.674-7.673C262.255,134.183,265.689,130.75,269.93,130.75 M269.93,144.028
			c3.103,0,5.605-2.502,5.605-5.604c0-3.103-2.503-5.605-5.605-5.605s-5.604,2.502-5.604,5.605
			C264.325,141.526,266.827,144.028,269.93,144.028"/>
		<polygon fill="#093945" points="285.65,131.081 287.719,131.081 287.719,143.698 296.404,143.698 296.404,145.766 285.65,145.766
					"/>
		<polygon fill="#093945" points="303.355,131.081 305.422,131.081 305.422,143.698 314.109,143.698 314.109,145.766
			303.355,145.766 		"/>
		<polygon fill="#093945" points="332.163,131.081 332.163,133.149 323.684,133.149 323.684,137.39 331.543,137.39 331.543,139.457
			323.684,139.457 323.684,143.698 332.163,143.698 332.163,145.766 321.614,145.766 321.614,131.081 		"/>
		<path fill="#093945" d="M347.451,146.098c-4.241,0-7.674-3.433-7.674-7.672c0-4.241,3.433-7.674,7.674-7.674
			c2.088,0,3.951,0.828,5.336,2.172l-1.449,1.469c-1.013-0.973-2.377-1.572-3.887-1.572c-3.102,0-5.605,2.502-5.605,5.605
			c0,3.102,2.504,5.604,5.605,5.604c1.51,0,2.874-0.599,3.887-1.571l1.449,1.468C351.4,145.271,349.518,146.098,347.451,146.098"/>
		<polygon fill="#093945" points="371.754,131.081 371.754,133.149 366.375,133.149 366.375,145.766 364.307,145.766
			364.307,133.149 358.93,133.149 358.93,131.081 		"/>
		<rect x="379.652" y="131.081" fill="#093945" width="2.068" height="14.687"/>
		<path fill="#093945" d="M398.07,130.75c4.24,0,7.673,3.433,7.673,7.674c0,4.24-3.433,7.673-7.673,7.673s-7.674-3.434-7.674-7.673
			C390.396,134.183,393.83,130.75,398.07,130.75 M398.07,144.028c3.101,0,5.605-2.502,5.605-5.604c0-3.103-2.505-5.605-5.605-5.605
			c-3.104,0-5.606,2.502-5.606,5.605C392.464,141.526,394.967,144.028,398.07,144.028"/>
		<polygon fill="#093945" points="416.104,134.597 416.104,145.766 414.037,145.766 414.037,131.081 416.104,131.081
			424.296,142.251 424.296,131.081 426.363,131.081 426.363,145.766 424.296,145.766 		"/>
	</g>
</g>
</svg>
