<?xml version="1.0" encoding="utf-8"?>
<!-- Generator: Adobe Illustrator 16.0.0, SVG Export Plug-In . SVG Version: 6.00 Build 0)  -->
<!DOCTYPE svg PUBLIC "-//W3C//DTD SVG 1.1//EN" "http://www.w3.org/Graphics/SVG/1.1/DTD/svg11.dtd">
<svg version="1.1" id="Layer_1" xmlns="http://www.w3.org/2000/svg" xmlns:xlink="http://www.w3.org/1999/xlink" x="0px" y="0px"
	viewBox="0 0 432 288" enable-background="new 0 0 432 288" xml:space="preserve">
<g>
	<path fill="#093945" d="M321.362,194.338c1.969,0,3.562,1.606,3.562,3.591c0,1.985-1.593,3.589-3.562,3.589
		c-1.97,0-3.562-1.604-3.562-3.589C317.801,195.945,319.393,194.338,321.362,194.338 M321.362,200.789
		c1.562,0,2.837-1.284,2.837-2.86c0-1.575-1.273-2.86-2.837-2.86s-2.837,1.285-2.837,2.86
		C318.525,199.505,319.799,200.789,321.362,200.789 M319.973,195.945h1.867c0.68,0,1.243,0.567,1.243,1.256
		c0,0.523-0.331,0.975-0.797,1.165l0.666,1.549h-0.767l-0.623-1.459h-0.868v1.459h-0.724v-3.97H319.973z M320.695,197.725h1.124
		c0.231,0,0.45-0.139,0.517-0.358c0.108-0.364-0.152-0.689-0.496-0.689h-1.145V197.725z"/>
	<path fill="#093945" d="M216.045,205.055c17.215,0,33.396-6.7,45.567-18.873c12.171-12.171,18.873-28.353,18.873-45.567
		c0-9.688-2.097-19.004-6.234-27.68c-1.806-3.785-3.995-7.414-6.51-10.785c-3.072-4.119-6.392-7.336-9.964-10.625
		c-2.941-2.709-4.637-5.572-4.94-8.75c-0.29-3.035,0.773-5.994,3.003-8.646c2.066-2.467,5.024-3.959,8.266-4.203
		c3.244-0.246,7.027,1.031,9.297,3.3c0,0,1.775,2.545-0.237,4.556c-2.012,2.014-4.787,0.467-4.787,0.467
		c-0.925-0.926-2.517-1.418-3.827-1.301c-1.31,0.113-2.574,0.797-3.418,1.805c-0.99,1.183-1.203,2.421-1.108,3.513
		c0.13,1.513,1.372,2.91,2.319,3.784c4.713,4.343,7.703,7.266,11.115,11.841c2.792,3.744,5.225,7.774,7.23,11.979
		c4.598,9.643,6.928,19.988,6.928,30.748c0,19.117-7.443,37.092-20.962,50.608c-13.519,13.52-31.49,20.965-50.608,20.965
		c-19.118,0-37.091-7.445-50.609-20.965c-13.519-13.517-20.964-31.491-20.964-50.608c0-10.76,2.331-21.105,6.93-30.748
		c2.007-4.205,4.438-8.234,7.232-11.979c3.409-4.575,6.401-7.498,11.114-11.841c0.948-0.874,2.189-2.271,2.318-3.784
		c0.095-1.092-0.117-2.33-1.108-3.513c-0.846-1.008-2.109-1.69-3.418-1.805c-1.31-0.117-2.901,0.375-3.828,1.301
		c0,0-2.493,1.469-4.426-0.467c-1.934-1.935-0.597-4.556-0.597-4.556c2.269-2.269,6.051-3.546,9.294-3.3
		c3.245,0.244,6.2,1.736,8.268,4.203c2.228,2.652,3.292,5.611,3.002,8.646c-0.303,3.178-2.001,6.041-4.941,8.75
		c-3.572,3.289-6.891,6.506-9.963,10.625c-2.515,3.371-4.706,7-6.511,10.785c-4.137,8.676-6.235,17.99-6.235,27.68
		c0,17.215,6.705,33.396,18.875,45.567C182.651,198.354,198.831,205.055,216.045,205.055"/>
	<path fill="#093945" d="M211.035,78.141c-6.214,6.215-15.37,6.056-21.095,0.332c-5.724-5.728-5.724-15.041,0-20.765
		c5.726-5.727,15.04-5.723,20.764,0l2.341,2.342l-5.039,5.042l-2.343-2.343c-2.946-2.944-7.733-2.944-10.681,0
		c-2.944,2.943-2.944,7.734,0,10.681c2.943,2.942,7.484,3.196,10.681,0l15.394-15.392c6.215-6.213,15.369-6.055,21.095-0.33
		c5.724,5.724,5.724,15.037,0,20.764c-5.726,5.725-15.042,5.723-20.765,0l-2.342-2.341l5.043-5.044l2.342,2.343
		c2.944,2.942,7.733,2.942,10.679,0c2.944-2.944,2.944-7.735,0-10.681c-2.943-2.942-7.483-3.195-10.679,0L211.035,78.141z"/>
	<path fill="#093945" d="M237.169,148.735c-2.975,8.815-11.305,15.166-21.124,15.166c-12.313,0-22.296-9.982-22.296-22.3
		c0-12.313,9.981-22.295,22.296-22.295c9.819,0,18.149,6.349,21.124,15.165h24.712c-3.43-22.23-22.645-39.252-45.836-39.252
		c-25.616,0-46.383,20.768-46.383,46.382c0,25.618,20.767,46.384,46.383,46.384c23.191,0,42.406-17.021,45.836-39.25H237.169z
		 M216.045,180.985c-21.75,0-39.381-17.631-39.381-39.384c0-21.749,17.631-39.38,39.381-39.38c16.746,0,31.041,10.458,36.736,25.193
		h-11.007c-5.005-9.059-14.648-15.193-25.729-15.193c-16.227,0-29.381,13.155-29.381,29.38c0,16.228,13.154,29.384,29.381,29.384
		c11.081,0,20.725-6.138,25.729-15.197h11.007C247.086,170.528,232.791,180.985,216.045,180.985"/>
	<polygon fill="#093945" points="94.329,179.784 93.672,177.483 107.659,173.487 104.896,163.821 107.19,163.169 110.608,175.133
		"/>
	<polygon fill="#093945" points="87.868,143.325 90.245,143.137 91.025,152.915 95.898,152.53 95.175,143.465 97.55,143.278
		98.274,152.34 103.146,151.95 102.366,142.174 104.742,141.985 105.712,154.147 88.838,155.487 	"/>
	<path fill="#093945" d="M100.53,129.155c1.797,0.232,2.997-1.615,3.31-4.037c0.312-2.42-0.474-4.523-2.176-4.742
		c-1.702-0.221-2.524,1.678-3.309,4.035c-1.099,3.31-2.466,6.076-5.658,5.664c-3.097-0.398-4.481-3.448-4.035-6.912
		c0.478-3.703,2.797-6.035,5.658-5.666l-0.306,2.371c-1.561-0.197-2.708,1.438-2.988,3.598c-0.308,2.398,0.417,4.037,1.978,4.238
		c1.323,0.17,2.313-1.537,2.987-3.598c1.191-3.634,2.718-6.525,5.979-6.105c3.263,0.421,4.714,3.697,4.233,7.424
		s-2.81,6.516-5.978,6.105L100.53,129.155z"/>
	<polygon fill="#093945" points="97.138,91.573 99.394,92.339 97.391,98.229 111.161,102.913 110.389,105.178 96.621,100.493
		94.616,106.384 92.361,105.616 	"/>
	<path fill="#093945" d="M123.898,77.21l-1.289,2.213l-4.764-0.727l-3.699,6.346l2.99,3.765l-1.289,2.214l-11.269-14.267
		l1.351-2.315L123.898,77.21z M112.556,83.038l2.762-4.735l-7.388-1.146L112.556,83.038z"/>
	<path fill="#093945" d="M132.231,52.909l6.961,6.379l-1.618,1.765l-0.614-0.565c-0.327,1.521-1.043,2.938-2.145,4.139
		c-3.317,3.613-8.919,3.865-12.521,0.566c-3.604-3.305-3.836-8.904-0.521-12.52c1.635-1.781,3.791-2.725,6.02-2.857l0.114,2.379
		c-1.618,0.106-3.195,0.803-4.376,2.09c-2.426,2.646-2.256,6.729,0.379,9.143c2.638,2.417,6.722,2.234,9.149-0.412
		c1.179-1.287,1.737-2.917,1.704-4.539l-2.391-2.189l-4.367,4.761l-1.757-1.609L132.231,52.909z"/>
	<polygon fill="#093945" points="148.173,31.171 149.533,33.128 141.484,38.729 144.276,42.739 151.738,37.549 153.099,39.505
		145.64,44.696 148.431,48.706 156.48,43.105 157.842,45.062 147.83,52.03 138.159,38.139 	"/>
	<path fill="#093945" d="M196.141,31.05c-4.814,0.939-9.47-2.182-10.406-6.979c-0.935-4.796,2.205-9.444,7.019-10.386
		c2.371-0.465,4.667,0.058,6.536,1.27l-1.317,1.984c-1.367-0.875-3.048-1.251-4.763-0.915c-3.522,0.688-5.811,4.077-5.125,7.587
		c0.684,3.51,4.078,5.783,7.6,5.096c1.716-0.336,3.133-1.316,4.069-2.641l1.969,1.34C200.444,29.237,198.49,30.59,196.141,31.05"/>
	<path fill="#093945" d="M219.959,11.649c4.902,0.145,8.754,4.219,8.608,9.104c-0.146,4.887-4.232,8.726-9.136,8.58
		c-4.901-0.146-8.754-4.221-8.607-9.105C210.969,15.341,215.057,11.503,219.959,11.649 M219.506,26.95
		c3.586,0.105,6.564-2.691,6.672-6.268c0.105-3.575-2.703-6.545-6.291-6.651c-3.586-0.106-6.564,2.692-6.672,6.267
		C213.108,23.872,215.916,26.844,219.506,26.95"/>
	<polygon fill="#093945" points="244.246,19.147 240.863,31.569 238.555,30.939 243,14.609 245.309,15.239 251.068,30.151
		254.448,17.728 256.758,18.358 252.312,34.688 250.004,34.06 	"/>
	<polygon fill="#093945" points="269.021,42.264 266.651,41.015 268.646,22.935 270.912,24.127 269.28,38.896 280.525,29.184
		282.789,30.376 	"/>
	<polygon fill="#093945" points="303.027,45.714 301.506,47.547 293.959,41.28 290.836,45.038 297.83,50.847 296.305,52.68
		289.312,46.87 286.189,50.629 293.735,56.897 292.213,58.73 282.827,50.936 293.643,37.917 	"/>
	<path fill="#093945" d="M318.065,62.437c1.86,2.369,1.454,5.792-0.909,7.646c-2.027,1.59-4.789,1.507-6.717-0.022l-2.562,6.815
		l-1.714-2.184l2.51-6.652l-2.57-3.275l-4.785,3.753l-1.477-1.883l13.317-10.448L318.065,62.437z M315.68,68.2
		c1.33-1.045,1.561-2.957,0.511-4.293l-3.429-4.369l-4.785,3.754l3.43,4.369C312.455,68.997,314.346,69.247,315.68,68.2"/>
	<polygon fill="#093945" points="333.715,88.64 331.59,89.719 328.77,84.174 315.807,90.761 314.725,88.624 327.686,82.038
		324.867,76.493 326.992,75.413 	"/>

		<rect x="328.92" y="95.277" transform="matrix(0.3016 0.9534 -0.9534 0.3016 329.4524 -242.2921)" fill="#093945" width="2.396" height="16.932"/>
	<path fill="#093945" d="M325.418,118.797l16.783-2.159l1.091,8.471c0.343,2.659-1.528,5.096-4.177,5.437
		c-1.229,0.157-2.402-0.173-3.35-0.823c-0.683,1.439-2.059,2.508-3.735,2.727c-2.649,0.34-5.054-1.545-5.396-4.205L325.418,118.797z
		 M332.934,120.241l-4.848,0.625l0.912,7.074c0.174,1.352,1.378,2.307,2.727,2.133c1.348-0.174,2.293-1.404,2.119-2.761
		L332.934,120.241z M336.084,126.036c0.174,1.354,1.379,2.309,2.727,2.135s2.295-1.403,2.119-2.758l-0.787-6.101l-4.846,0.625
		L336.084,126.036z"/>
	<polygon fill="#093945" points="344.133,144.321 343.945,146.704 329.447,145.575 328.67,155.592 326.292,155.407 327.256,143.005
			"/>
	<polygon fill="#093945" points="337.663,180.227 335.368,179.585 338.008,170.138 333.301,168.823 330.854,177.579
		328.557,176.939 331.006,168.183 326.299,166.868 323.657,176.314 321.362,175.675 324.646,163.922 340.945,168.475 	"/>
	<path fill="#093945" d="M120.994,225.838c-3.261-3.66-2.948-9.26,0.702-12.508c3.649-3.253,9.247-2.92,12.508,0.737
		c1.608,1.806,2.327,4.047,2.236,6.275l-2.377-0.125c0.057-1.618-0.477-3.258-1.639-4.562c-2.386-2.681-6.467-2.923-9.137-0.544
		c-2.671,2.383-2.897,6.459-0.512,9.14c1.162,1.305,2.729,2.021,4.345,2.151l-0.151,2.375
		C124.746,228.613,122.585,227.623,120.994,225.838"/>
	<path fill="#093945" d="M150.054,228.321c3.944,2.92,4.781,8.461,1.873,12.39c-2.908,3.93-8.457,4.747-12.397,1.833
		c-3.944-2.917-4.781-8.461-1.873-12.39C140.565,226.227,146.113,225.405,150.054,228.321 M140.948,240.627
		c2.885,2.133,6.928,1.533,9.056-1.338c2.128-2.876,1.518-6.917-1.367-9.051c-2.885-2.135-6.929-1.536-9.057,1.339
		C137.451,234.454,138.063,238.491,140.948,240.627"/>
	<polygon fill="#093945" points="164.233,237.823 166.401,238.833 160.271,252.017 169.382,256.254 168.377,258.416
		157.096,253.169 	"/>
	<polygon fill="#093945" points="182.595,245.442 184.909,246.048 181.225,260.119 190.949,262.663 190.342,264.969
		178.306,261.823 	"/>
	<polygon fill="#093945" points="214.182,250.587 214.006,252.963 204.225,252.239 203.862,257.113 212.928,257.782
		212.751,260.163 203.686,259.491 203.323,264.363 213.104,265.088 212.928,267.467 200.762,266.564 202.016,249.685 	"/>
	<path fill="#093945" d="M231.912,266.763c-4.874,0.54-9.256-2.956-9.796-7.812c-0.536-4.854,2.974-9.229,7.849-9.768
		c2.399-0.269,4.646,0.442,6.408,1.806l-1.477,1.866c-1.289-0.983-2.937-1.497-4.67-1.304c-3.565,0.397-6.125,3.583-5.732,7.136
		c0.396,3.556,3.59,6.104,7.155,5.707c1.735-0.192,3.229-1.055,4.271-2.298l1.85,1.497
		C236.348,265.312,234.289,266.498,231.912,266.763"/>
	<polygon fill="#093945" points="256.227,243.226 256.936,245.505 250.994,247.347 255.309,261.234 253.023,261.944 248.71,248.055
		242.768,249.898 242.061,247.621 	"/>

		<rect x="266.164" y="238.931" transform="matrix(0.9036 -0.4283 0.4283 0.9036 -80.1989 138.362)" fill="#093945" width="2.392" height="16.925"/>
	<path fill="#093945" d="M279.059,230.451c4.039-2.788,9.557-1.785,12.334,2.238c2.774,4.022,1.756,9.536-2.28,12.32
		c-4.037,2.786-9.556,1.785-12.334-2.239C274.003,238.747,275.021,233.233,279.059,230.451 M287.758,243.048
		c2.953-2.038,3.697-6.055,1.666-9c-2.033-2.943-6.056-3.675-9.008-1.636c-2.955,2.036-3.699,6.057-1.668,8.998
		C280.78,244.355,284.805,245.087,287.758,243.048"/>
	<polygon fill="#093945" points="297.342,221.159 306.764,229.929 305.133,231.682 292.744,220.15 294.373,218.397 310.249,220.231
		300.826,211.462 302.456,209.71 314.846,221.238 313.217,222.991 	"/>
</g>
</svg>
