<?xml version="1.0" encoding="utf-8"?>
<!-- Generator: Adobe Illustrator 16.0.0, SVG Export Plug-In . SVG Version: 6.00 Build 0)  -->
<!DOCTYPE svg PUBLIC "-//W3C//DTD SVG 1.1//EN" "http://www.w3.org/Graphics/SVG/1.1/DTD/svg11.dtd">
<svg version="1.1" id="Layer_1" xmlns="http://www.w3.org/2000/svg" xmlns:xlink="http://www.w3.org/1999/xlink" x="0px" y="0px"
	 width="160px" height="160px" viewBox="0 0 160 160" enable-background="new 0 0 160 160" xml:space="preserve">
<g>
	<g>
		<path d="M29.26,38.469c0,0.388-0.194,0.583-0.582,0.583c-0.245,0-0.48-0.062-0.708-0.184s-0.436-0.245-0.625-0.366
			c-0.056-0.033-0.103-0.069-0.141-0.108c-0.039-0.039-0.081-0.081-0.125-0.125c-0.711,0.089-1.383,0.161-2.016,0.217
			s-1.171,0.083-1.615,0.083c-0.299,0-0.627-0.015-0.981-0.041c-0.355-0.028-0.691-0.101-1.008-0.217
			c-0.316-0.117-0.58-0.292-0.791-0.524c-0.211-0.233-0.316-0.561-0.316-0.982c0-0.312,0.098-0.6,0.292-0.866
			c0.193-0.267,0.464-0.399,0.807-0.399c0.034,0,0.073,0.005,0.117,0.017c0.045,0.011,0.083,0.017,0.116,0.017
			c0.699,0.155,1.432,0.286,2.198,0.392c0.766,0.104,1.537,0.191,2.314,0.258c-0.1-0.467-0.173-0.952-0.217-1.457
			c-0.045-0.505-0.075-0.997-0.091-1.474c-0.018-0.478-0.023-0.922-0.018-1.332c0.006-0.411,0.009-0.749,0.009-1.016
			c0-0.811,0.011-1.701,0.033-2.673c0.021-0.971,0.059-1.986,0.108-3.047c0.05-1.06,0.116-2.147,0.199-3.264
			c0.084-1.115,0.184-2.226,0.301-3.33c0.115-1.104,0.254-2.182,0.416-3.23c0.16-1.049,0.347-2.039,0.558-2.973
			c-0.943,0.134-1.859,0.292-2.748,0.475c-0.888,0.184-1.703,0.386-2.447,0.608c-0.066,0.022-0.128,0.033-0.184,0.033
			c-0.055,0-0.11,0-0.166,0c-0.166,0-0.319-0.039-0.458-0.117c-0.139-0.077-0.252-0.177-0.341-0.299s-0.158-0.261-0.208-0.416
			c-0.051-0.156-0.075-0.311-0.075-0.467c0-0.333,0.081-0.61,0.241-0.832c0.161-0.223,0.369-0.405,0.624-0.55
			s0.547-0.25,0.874-0.316c0.328-0.067,0.658-0.117,0.991-0.149c0.333-0.033,0.652-0.051,0.957-0.051c0.306,0,0.575,0,0.809,0
			c0.343,0,0.743,0.009,1.198,0.025s0.938,0.048,1.448,0.092c0.056-0.2,0.117-0.392,0.184-0.574c0.066-0.184,0.133-0.364,0.2-0.542
			l0.349,0.15c-0.044,0.222-0.094,0.561-0.149,1.016c0.577,0.056,1.166,0.119,1.766,0.191c0.599,0.072,1.171,0.164,1.715,0.274
			c0.544,0.111,1.043,0.236,1.499,0.375c0.454,0.139,0.832,0.291,1.132,0.458l-0.167,0.267c-0.277-0.033-0.558-0.053-0.841-0.059
			c-0.282-0.005-0.558-0.009-0.824-0.009c-0.666,0-1.376,0.028-2.132,0.084c-0.754,0.056-1.531,0.128-2.33,0.217
			c-0.056,0.743-0.111,1.578-0.167,2.505c-0.056,0.928-0.103,1.918-0.142,2.973s-0.069,2.147-0.092,3.28
			c-0.021,1.132-0.033,2.273-0.033,3.422s0.012,2.284,0.033,3.405c0.022,1.121,0.064,2.192,0.125,3.213
			c0.062,1.021,0.139,1.979,0.233,2.872c0.095,0.894,0.208,1.685,0.341,2.373c0.3,0.012,0.597,0.02,0.892,0.025
			c0.294,0.005,0.585,0.008,0.874,0.008c0.588,0,1.182-0.014,1.782-0.041c0.599-0.028,1.187-0.103,1.765-0.225l0.166,0.266
			c-0.233,0.167-0.53,0.322-0.891,0.467c-0.361,0.144-0.761,0.283-1.198,0.416c-0.439,0.133-0.911,0.259-1.416,0.375
			s-1.019,0.219-1.54,0.308c0.033,0.089,0.061,0.175,0.083,0.259C29.25,38.294,29.26,38.38,29.26,38.469z"/>
		<path d="M51.722,30.875c-0.199,0.4-0.438,0.786-0.716,1.157c-0.277,0.373-0.588,0.702-0.933,0.991
			c-0.345,0.288-0.725,0.52-1.141,0.691s-0.868,0.258-1.356,0.258c-0.688,0-1.249-0.233-1.682-0.699
			c-0.434-0.466-0.786-1.074-1.058-1.823c-0.272-0.749-0.485-1.599-0.642-2.548c-0.155-0.949-0.288-1.906-0.399-2.872
			c-0.255,0.455-0.491,0.93-0.708,1.424c-0.216,0.493-0.424,1.013-0.624,1.557c-0.199,0.544-0.399,1.104-0.599,1.682
			c-0.201,0.577-0.417,1.171-0.65,1.782c-0.056,0.133-0.116,0.279-0.183,0.44s-0.152,0.316-0.259,0.467
			c-0.105,0.149-0.229,0.274-0.374,0.374c-0.145,0.101-0.316,0.15-0.517,0.15c-0.144,0-0.271-0.033-0.383-0.1
			c-0.111-0.067-0.208-0.147-0.291-0.242s-0.156-0.199-0.217-0.316c-0.061-0.116-0.114-0.225-0.158-0.324
			c-0.222-0.5-0.399-1.011-0.533-1.532c-0.133-0.521-0.247-1.06-0.341-1.615c-0.095-0.555-0.175-1.143-0.242-1.765
			c-0.065-0.622-0.133-1.282-0.199-1.981c-0.232,0.544-0.44,1.062-0.624,1.557s-0.36,0.988-0.533,1.482
			c-0.172,0.494-0.345,1.005-0.517,1.532c-0.172,0.526-0.353,1.096-0.541,1.706c-0.044,0.145-0.091,0.297-0.142,0.458
			c-0.05,0.161-0.11,0.308-0.183,0.441c-0.072,0.133-0.166,0.243-0.283,0.333c-0.116,0.088-0.264,0.133-0.441,0.133
			c-0.288,0-0.499-0.091-0.633-0.274c-0.133-0.184-0.244-0.397-0.333-0.641c-0.133-0.334-0.261-0.797-0.383-1.391
			s-0.233-1.24-0.333-1.94c-0.1-0.699-0.178-1.421-0.232-2.164c-0.057-0.744-0.084-1.438-0.084-2.081c0-0.622,0.167-1.08,0.5-1.374
			c0.333-0.295,0.771-0.441,1.315-0.441c0.033,0,0.083,0,0.149,0c0.067,0,0.133,0.008,0.2,0.025
			c0.066,0.016,0.125,0.041,0.175,0.074c0.05,0.034,0.069,0.078,0.059,0.134c-0.101,0.776-0.167,1.515-0.2,2.215
			c-0.033,0.698-0.045,1.379-0.033,2.039c0.011,0.661,0.047,1.31,0.107,1.948c0.062,0.639,0.142,1.29,0.242,1.957
			c0.188-0.633,0.374-1.238,0.558-1.815c0.183-0.577,0.375-1.149,0.574-1.715c0.2-0.566,0.414-1.142,0.642-1.724
			c0.228-0.583,0.475-1.196,0.741-1.841c0.144-0.332,0.297-0.565,0.457-0.698c0.161-0.134,0.369-0.2,0.625-0.2
			c0.322,0,0.574,0.122,0.758,0.366c0.183,0.244,0.302,0.522,0.357,0.833c0.089,0.565,0.167,1.146,0.233,1.74s0.139,1.19,0.216,1.79
			c0.078,0.599,0.173,1.19,0.283,1.772c0.111,0.583,0.256,1.146,0.434,1.69c0.222-0.577,0.443-1.179,0.666-1.807
			c0.222-0.627,0.449-1.257,0.683-1.89s0.479-1.255,0.741-1.865c0.26-0.61,0.541-1.188,0.841-1.732
			c0.144-0.254,0.308-0.468,0.491-0.64c0.183-0.173,0.413-0.259,0.69-0.259c0.155,0,0.294,0.036,0.417,0.108
			c0.122,0.072,0.227,0.166,0.316,0.283c0.088,0.116,0.16,0.244,0.216,0.383s0.095,0.28,0.116,0.425
			c0.056,0.322,0.108,0.738,0.158,1.249s0.117,1.055,0.2,1.631c0.083,0.577,0.186,1.158,0.309,1.74
			c0.122,0.583,0.276,1.11,0.466,1.582c0.188,0.473,0.416,0.857,0.683,1.157s0.588,0.449,0.966,0.449
			c0.311,0,0.61-0.058,0.898-0.174c0.289-0.117,0.562-0.267,0.816-0.45c0.255-0.183,0.491-0.394,0.708-0.633
			c0.216-0.238,0.413-0.475,0.591-0.707L51.722,30.875z"/>
		<path d="M58.917,24.531c0,0.123-0.045,0.231-0.134,0.325c-0.089,0.095-0.194,0.142-0.316,0.142c-0.1,0-0.206-0.03-0.316-0.092
			c-0.111-0.061-0.236-0.13-0.375-0.208s-0.299-0.147-0.482-0.208s-0.392-0.092-0.625-0.092c-0.544,0-1.029,0.17-1.456,0.508
			c-0.428,0.339-0.789,0.758-1.082,1.257c-0.295,0.5-0.52,1.032-0.675,1.6c-0.155,0.565-0.233,1.076-0.233,1.531
			c0,0.322,0.028,0.636,0.083,0.941c0.056,0.305,0.153,0.582,0.292,0.832s0.33,0.449,0.574,0.599
			c0.244,0.15,0.555,0.226,0.933,0.226c0.399,0,0.782-0.075,1.148-0.226c0.366-0.149,0.711-0.347,1.033-0.59
			c0.011-0.355,0.068-0.73,0.174-1.125c0.105-0.394,0.242-0.782,0.409-1.165c0.165-0.384,0.357-0.746,0.574-1.091
			c0.216-0.344,0.44-0.649,0.674-0.916l0.217,0.134c-0.123,0.377-0.212,0.766-0.267,1.165c-0.056,0.399-0.084,0.794-0.084,1.183
			c0,0.399,0.034,0.777,0.101,1.132c0.066,0.355,0.183,0.664,0.35,0.925c0.167,0.26,0.394,0.466,0.683,0.615
			c0.289,0.15,0.66,0.226,1.116,0.226c0.555,0,1.064-0.128,1.531-0.384c0.467-0.255,0.877-0.577,1.232-0.965l0.133,0.065
			c-0.2,0.39-0.46,0.761-0.782,1.116s-0.681,0.674-1.074,0.958c-0.394,0.282-0.813,0.507-1.257,0.674
			c-0.444,0.167-0.883,0.25-1.315,0.25c-0.61,0-1.11-0.175-1.499-0.524s-0.654-0.791-0.799-1.324
			c-0.467,0.467-0.985,0.857-1.557,1.174c-0.572,0.316-1.175,0.475-1.808,0.475c-0.466,0-0.88-0.086-1.24-0.258
			s-0.663-0.402-0.907-0.691c-0.244-0.288-0.43-0.629-0.558-1.023s-0.191-0.808-0.191-1.241c0-0.499,0.08-1.013,0.241-1.539
			c0.161-0.527,0.383-1.047,0.666-1.558s0.619-0.993,1.008-1.448c0.388-0.455,0.812-0.855,1.273-1.199
			c0.46-0.344,0.946-0.616,1.457-0.816c0.511-0.199,1.032-0.299,1.564-0.299c0.123,0,0.272,0.014,0.45,0.041
			c0.178,0.028,0.35,0.075,0.517,0.142c0.166,0.066,0.308,0.161,0.424,0.283C58.858,24.188,58.917,24.343,58.917,24.531z"/>
		<path d="M72.169,38.369c0,0.898-0.105,1.816-0.316,2.755c-0.21,0.938-0.544,1.801-0.999,2.59c-0.455,0.788-1.04,1.454-1.756,1.998
			c-0.717,0.544-1.579,0.882-2.59,1.016c-0.1,0.022-0.194,0.038-0.283,0.05c-0.089,0.011-0.188,0.017-0.299,0.017
			c-0.611,0-1.188-0.122-1.732-0.366s-1.019-0.575-1.424-0.991c-0.404-0.416-0.724-0.899-0.957-1.448
			c-0.232-0.55-0.35-1.124-0.35-1.723c0-0.667,0.136-1.306,0.408-1.916c0.271-0.61,0.63-1.174,1.074-1.689
			c0.443-0.517,0.945-0.972,1.507-1.365c0.561-0.395,1.135-0.708,1.723-0.941l0.1,0.217c-1.076,0.577-1.909,1.37-2.497,2.381
			c-0.589,1.01-0.882,2.126-0.882,3.347c0,0.5,0.069,0.985,0.208,1.457s0.347,0.885,0.624,1.241
			c0.277,0.354,0.624,0.641,1.041,0.856c0.416,0.217,0.896,0.325,1.44,0.325c0.766,0,1.404-0.199,1.914-0.599
			c0.511-0.4,0.919-0.899,1.224-1.499c0.306-0.6,0.522-1.252,0.65-1.957c0.127-0.705,0.191-1.362,0.191-1.973
			c0-0.533-0.033-1.055-0.101-1.565c-0.066-0.511-0.136-1.019-0.208-1.523c-0.072-0.506-0.142-1.013-0.208-1.523
			s-0.1-1.032-0.1-1.565c0-0.378,0.014-0.766,0.041-1.165c0.027-0.4,0.081-0.806,0.158-1.216c-0.488,0.577-1.052,1.068-1.689,1.474
			c-0.639,0.404-1.324,0.607-2.057,0.607c-0.455,0-0.863-0.086-1.225-0.258c-0.36-0.172-0.665-0.402-0.915-0.691
			c-0.25-0.288-0.438-0.629-0.566-1.023c-0.127-0.395-0.191-0.808-0.191-1.241c0-0.499,0.08-1.018,0.242-1.557
			c0.16-0.538,0.382-1.06,0.665-1.564s0.619-0.983,1.008-1.433c0.389-0.45,0.812-0.844,1.274-1.183
			c0.46-0.338,0.945-0.604,1.456-0.799s1.032-0.291,1.565-0.291c0.267,0,0.535,0.036,0.808,0.107
			c0.271,0.073,0.521,0.182,0.749,0.325c0.228,0.145,0.411,0.327,0.55,0.549c0.139,0.223,0.208,0.489,0.208,0.8
			c0,0.223-0.05,0.422-0.149,0.6c-0.101,0.178-0.228,0.336-0.384,0.475c-0.155,0.139-0.327,0.264-0.516,0.375
			c-0.188,0.11-0.372,0.205-0.55,0.282l-0.066-0.199c0.089-0.101,0.149-0.222,0.183-0.366c0.034-0.145,0.05-0.284,0.05-0.417
			c0-0.199-0.03-0.401-0.091-0.607c-0.062-0.205-0.15-0.394-0.267-0.566c-0.117-0.172-0.264-0.313-0.441-0.425
			c-0.178-0.11-0.378-0.166-0.6-0.166c-0.565,0-1.076,0.152-1.531,0.458s-0.841,0.691-1.157,1.157s-0.562,0.974-0.733,1.523
			c-0.172,0.549-0.258,1.068-0.258,1.557c0,0.322,0.03,0.649,0.092,0.983c0.061,0.332,0.164,0.632,0.308,0.898
			c0.145,0.267,0.342,0.486,0.592,0.658c0.249,0.172,0.568,0.258,0.957,0.258c0.6,0,1.154-0.158,1.665-0.475
			s0.966-0.691,1.365-1.124c0.155-0.443,0.358-0.863,0.608-1.258c0.249-0.394,0.558-0.734,0.924-1.023l0.283,0.2
			c-0.256,0.41-0.422,0.877-0.5,1.398c-0.077,0.521-0.116,1.032-0.116,1.531c0,0.589,0.044,1.177,0.133,1.766
			c0.089,0.588,0.186,1.182,0.292,1.781c0.105,0.6,0.202,1.204,0.291,1.815C72.125,37.114,72.169,37.736,72.169,38.369z"/>
		<path d="M84.375,30.875c-0.289,0.423-0.635,0.816-1.041,1.183c-0.404,0.366-0.85,0.683-1.332,0.949s-0.988,0.478-1.515,0.633
			c-0.526,0.155-1.058,0.233-1.59,0.233c-0.755,0-1.46-0.098-2.115-0.291c-0.654-0.195-1.227-0.492-1.715-0.892
			s-0.871-0.901-1.148-1.507s-0.416-1.312-0.416-2.123c0-0.799,0.146-1.545,0.441-2.239c0.293-0.693,0.698-1.299,1.215-1.815
			c0.516-0.516,1.124-0.924,1.823-1.224c0.7-0.3,1.449-0.449,2.248-0.449c0.377,0,0.73,0.053,1.057,0.158
			c0.328,0.105,0.613,0.261,0.858,0.466c0.244,0.206,0.436,0.458,0.574,0.758s0.209,0.645,0.209,1.032
			c0,0.467-0.096,0.877-0.283,1.232c-0.189,0.355-0.438,0.666-0.75,0.933c-0.312,0.267-0.664,0.488-1.057,0.666
			c-0.395,0.178-0.806,0.322-1.233,0.433c-0.427,0.111-0.85,0.191-1.266,0.241s-0.796,0.075-1.14,0.075H75.8
			c0.144,1.01,0.543,1.781,1.198,2.314c0.654,0.533,1.56,0.8,2.714,0.8c0.822,0,1.624-0.145,2.407-0.434
			c0.783-0.288,1.49-0.688,2.123-1.198L84.375,30.875z M75.75,28.827h0.417c0.398,0,0.81-0.063,1.231-0.191
			c0.423-0.127,0.803-0.316,1.141-0.565c0.339-0.25,0.619-0.559,0.842-0.925c0.222-0.366,0.332-0.782,0.332-1.248
			c0-0.456-0.098-0.833-0.29-1.133c-0.195-0.3-0.531-0.449-1.008-0.449c-0.489,0-0.902,0.146-1.241,0.441
			c-0.338,0.294-0.613,0.654-0.824,1.082c-0.21,0.427-0.363,0.877-0.458,1.349s-0.142,0.891-0.142,1.258V28.827z"/>
	</g>
	<g>
		<path d="M65.237,72.904c0,0.799-0.15,1.548-0.45,2.247s-0.702,1.341-1.207,1.924c-0.505,0.582-1.091,1.106-1.757,1.573
			c-0.666,0.466-1.365,0.857-2.098,1.174c-0.733,0.316-1.479,0.561-2.24,0.732c-0.76,0.173-1.484,0.258-2.173,0.258h-0.1v-0.333
			c0.999-0.122,1.968-0.43,2.905-0.924c0.938-0.494,1.771-1.118,2.498-1.873s1.31-1.609,1.748-2.564
			c0.438-0.954,0.658-1.953,0.658-2.997c0-0.566-0.075-1.08-0.225-1.54c-0.15-0.461-0.372-0.855-0.666-1.183
			c-0.295-0.327-0.664-0.579-1.107-0.757c-0.444-0.178-0.96-0.267-1.549-0.267c-1.188,0-2.262,0.252-3.222,0.757
			c-0.961,0.506-1.812,1.177-2.557,2.016c-0.743,0.838-1.385,1.801-1.923,2.889s-0.982,2.221-1.332,3.396
			c-0.35,1.177-0.607,2.356-0.774,3.538c-0.166,1.183-0.249,2.279-0.249,3.289c0,0.811,0.053,1.629,0.158,2.456
			c0.104,0.827,0.274,1.624,0.508,2.39s0.532,1.484,0.898,2.156c0.367,0.671,0.808,1.256,1.324,1.757
			c0.517,0.499,1.112,0.894,1.79,1.183c0.677,0.287,1.448,0.433,2.314,0.433c0.6,0,1.176-0.111,1.731-0.334
			c0.556-0.221,1.076-0.517,1.565-0.882c0.488-0.366,0.93-0.783,1.324-1.249c0.394-0.466,0.729-0.944,1.007-1.433l0.2,0.101
			c-0.189,0.688-0.511,1.364-0.966,2.031c-0.456,0.666-0.997,1.258-1.624,1.773s-1.311,0.933-2.048,1.249
			c-0.738,0.316-1.479,0.475-2.223,0.475c-0.988,0-1.882-0.152-2.682-0.458c-0.799-0.306-1.512-0.728-2.139-1.266
			c-0.628-0.539-1.169-1.172-1.624-1.898c-0.455-0.728-0.832-1.515-1.133-2.365c-0.299-0.848-0.521-1.736-0.665-2.663
			c-0.145-0.927-0.217-1.856-0.217-2.789c0-1.222,0.128-2.498,0.383-3.829c0.256-1.333,0.633-2.643,1.132-3.931
			c0.5-1.287,1.113-2.511,1.84-3.671c0.728-1.16,1.562-2.182,2.507-3.063c0.943-0.883,1.989-1.582,3.139-2.099
			c1.148-0.517,2.389-0.774,3.722-0.774c0.832,0,1.593,0.119,2.281,0.358c0.688,0.239,1.279,0.586,1.772,1.041
			c0.494,0.455,0.874,1.013,1.141,1.673C65.103,71.292,65.237,72.049,65.237,72.904z"/>
		<path d="M73.345,85.625c0,0.777-0.128,1.499-0.383,2.165c-0.255,0.667-0.616,1.242-1.082,1.731
			c-0.467,0.488-1.024,0.872-1.674,1.148c-0.649,0.277-1.368,0.416-2.156,0.416c-0.699,0-1.33-0.129-1.89-0.392
			c-0.561-0.259-1.041-0.611-1.44-1.057c-0.399-0.444-0.705-0.963-0.916-1.557c-0.211-0.595-0.316-1.229-0.316-1.906
			c0-0.566,0.081-1.104,0.241-1.615c0.161-0.511,0.386-0.985,0.675-1.424s0.633-0.844,1.032-1.216
			c0.399-0.371,0.833-0.708,1.299-1.007l0.2,0.149c-0.467,0.544-0.833,1.144-1.1,1.799s-0.399,1.349-0.399,2.081
			c0,0.532,0.081,1.074,0.241,1.624c0.161,0.55,0.397,1.052,0.708,1.507s0.699,0.827,1.166,1.114
			c0.466,0.29,0.999,0.434,1.598,0.434c0.378,0,0.733-0.078,1.066-0.233s0.624-0.365,0.874-0.633c0.25-0.266,0.449-0.568,0.6-0.907
			c0.149-0.338,0.225-0.69,0.225-1.058c0-0.354-0.053-0.701-0.158-1.04s-0.253-0.655-0.441-0.949s-0.416-0.561-0.683-0.8
			c-0.267-0.238-0.555-0.435-0.866-0.59c-0.178-0.089-0.347-0.156-0.508-0.2c-0.16-0.045-0.336-0.095-0.524-0.15
			c-0.078-0.011-0.161-0.03-0.249-0.059c-0.089-0.026-0.173-0.061-0.25-0.1c-0.078-0.039-0.145-0.091-0.2-0.158
			c-0.056-0.066-0.083-0.149-0.083-0.249c0-0.2,0.072-0.384,0.217-0.55c0.144-0.166,0.316-0.313,0.516-0.441s0.41-0.228,0.633-0.3
			c0.222-0.072,0.416-0.107,0.583-0.107c0.565,0,1.065,0.144,1.498,0.432c0.433,0.289,0.794,0.656,1.083,1.1
			c0.288,0.444,0.505,0.933,0.648,1.466C73.273,84.626,73.345,85.137,73.345,85.625z"/>
		<path d="M94.477,88.156c-0.201,0.399-0.439,0.785-0.717,1.156c-0.279,0.373-0.59,0.703-0.934,0.99
			c-0.344,0.289-0.723,0.521-1.139,0.692s-0.869,0.257-1.357,0.257c-0.689,0-1.25-0.231-1.682-0.697
			c-0.434-0.467-0.787-1.075-1.059-1.824c-0.271-0.748-0.486-1.599-0.641-2.548c-0.156-0.949-0.289-1.906-0.4-2.872
			c-0.254,0.455-0.49,0.93-0.707,1.424s-0.424,1.013-0.623,1.557c-0.201,0.544-0.402,1.105-0.602,1.682
			c-0.199,0.577-0.416,1.171-0.648,1.782c-0.055,0.133-0.117,0.28-0.184,0.44c-0.066,0.162-0.152,0.316-0.258,0.467
			c-0.105,0.149-0.23,0.273-0.375,0.375c-0.145,0.1-0.316,0.15-0.516,0.15c-0.145,0-0.273-0.034-0.383-0.102
			c-0.111-0.065-0.209-0.147-0.291-0.241c-0.084-0.095-0.156-0.199-0.217-0.316c-0.062-0.116-0.115-0.226-0.158-0.324
			c-0.223-0.5-0.4-1.011-0.533-1.532c-0.134-0.521-0.247-1.06-0.341-1.615c-0.095-0.555-0.175-1.143-0.241-1.765
			c-0.067-0.621-0.134-1.282-0.199-1.981c-0.233,0.544-0.442,1.063-0.625,1.557c-0.184,0.494-0.361,0.988-0.533,1.482
			c-0.173,0.494-0.344,1.005-0.517,1.531c-0.172,0.527-0.353,1.097-0.54,1.706c-0.046,0.146-0.093,0.299-0.142,0.459
			c-0.051,0.161-0.111,0.308-0.185,0.441c-0.071,0.132-0.166,0.244-0.282,0.333c-0.117,0.088-0.264,0.134-0.44,0.134
			c-0.29,0-0.501-0.092-0.633-0.275c-0.134-0.184-0.245-0.396-0.334-0.641c-0.133-0.334-0.261-0.797-0.382-1.391
			c-0.123-0.594-0.233-1.241-0.334-1.94c-0.1-0.699-0.177-1.421-0.233-2.164c-0.056-0.744-0.083-1.438-0.083-2.081
			c0-0.622,0.166-1.08,0.5-1.374c0.333-0.294,0.771-0.441,1.314-0.441c0.034,0,0.084,0,0.15,0s0.134,0.008,0.2,0.025
			c0.065,0.016,0.124,0.041,0.175,0.074c0.049,0.034,0.068,0.078,0.059,0.134c-0.101,0.776-0.168,1.515-0.2,2.215
			c-0.033,0.698-0.045,1.379-0.033,2.039c0.011,0.661,0.046,1.31,0.108,1.948c0.061,0.638,0.142,1.29,0.241,1.957
			c0.188-0.633,0.375-1.238,0.558-1.815s0.375-1.148,0.574-1.715c0.2-0.566,0.414-1.141,0.641-1.724
			c0.229-0.582,0.475-1.195,0.742-1.84c0.144-0.333,0.297-0.566,0.457-0.699c0.161-0.134,0.37-0.2,0.625-0.2
			c0.322,0,0.574,0.122,0.758,0.367c0.184,0.243,0.303,0.521,0.357,0.832c0.088,0.566,0.166,1.146,0.234,1.74
			c0.066,0.594,0.139,1.19,0.217,1.79c0.076,0.599,0.17,1.19,0.281,1.773c0.111,0.582,0.256,1.146,0.434,1.689
			c0.223-0.577,0.443-1.179,0.666-1.806c0.223-0.628,0.449-1.258,0.684-1.891c0.232-0.633,0.479-1.255,0.74-1.864
			c0.262-0.611,0.541-1.188,0.84-1.732c0.145-0.255,0.309-0.469,0.492-0.641c0.184-0.173,0.414-0.259,0.691-0.259
			c0.156,0,0.293,0.036,0.416,0.108c0.121,0.072,0.227,0.166,0.316,0.283c0.088,0.116,0.16,0.244,0.217,0.383
			c0.055,0.139,0.094,0.28,0.117,0.425c0.055,0.322,0.107,0.738,0.158,1.249c0.049,0.511,0.115,1.055,0.199,1.632
			c0.082,0.576,0.186,1.157,0.307,1.739c0.123,0.583,0.277,1.11,0.467,1.582c0.188,0.473,0.416,0.857,0.682,1.158
			c0.268,0.298,0.59,0.448,0.967,0.448c0.311,0,0.611-0.058,0.9-0.173c0.287-0.117,0.561-0.268,0.814-0.452
			c0.256-0.181,0.492-0.393,0.709-0.633c0.217-0.238,0.412-0.474,0.59-0.706L94.477,88.156z"/>
		<path d="M102.369,88.156c-0.256,0.422-0.559,0.808-0.908,1.156c-0.35,0.35-0.732,0.656-1.148,0.917s-0.861,0.463-1.334,0.607
			c-0.471,0.145-0.957,0.216-1.455,0.216c-0.623,0-1.176-0.105-1.658-0.316c-0.482-0.21-0.887-0.501-1.215-0.874
			c-0.328-0.371-0.578-0.81-0.748-1.314c-0.174-0.506-0.26-1.059-0.26-1.657c0-0.644,0.094-1.254,0.283-1.832
			c0.188-0.577,0.451-1.118,0.783-1.623s0.725-0.969,1.174-1.39c0.449-0.423,0.93-0.8,1.441-1.133l0.199,0.149
			c-0.545,0.645-0.986,1.365-1.324,2.165c-0.338,0.799-0.508,1.632-0.508,2.498c0,0.499,0.059,0.979,0.174,1.439
			c0.117,0.462,0.301,0.869,0.551,1.225c0.248,0.354,0.568,0.638,0.957,0.849c0.389,0.212,0.861,0.316,1.416,0.316
			c0.654,0,1.277-0.139,1.871-0.416s1.131-0.628,1.609-1.049L102.369,88.156z M97.705,77.1c0,0.222-0.051,0.444-0.15,0.666
			c-0.1,0.223-0.229,0.42-0.389,0.592c-0.162,0.172-0.348,0.313-0.561,0.425c-0.209,0.11-0.426,0.166-0.648,0.166
			c-0.289,0-0.52-0.095-0.689-0.283c-0.174-0.188-0.258-0.427-0.258-0.716c0-0.223,0.049-0.441,0.148-0.658
			c0.1-0.216,0.23-0.407,0.391-0.574c0.162-0.167,0.344-0.302,0.551-0.407c0.205-0.106,0.418-0.158,0.641-0.158
			c0.289,0,0.521,0.088,0.699,0.266S97.705,76.822,97.705,77.1z"/>
		<path d="M115.938,88.156c-0.211,0.399-0.436,0.783-0.674,1.148s-0.508,0.688-0.809,0.966c-0.299,0.277-0.637,0.499-1.014,0.665
			c-0.379,0.168-0.811,0.252-1.301,0.252c-0.555,0-1.031-0.138-1.432-0.41c-0.398-0.271-0.74-0.633-1.023-1.081
			s-0.512-0.962-0.682-1.54c-0.174-0.577-0.314-1.166-0.426-1.765c-0.111-0.601-0.195-1.19-0.25-1.773s-0.105-1.107-0.148-1.573
			c-0.213,0.166-0.467,0.485-0.768,0.956c-0.299,0.473-0.605,1.024-0.916,1.657s-0.607,1.321-0.891,2.064
			c-0.281,0.744-0.512,1.477-0.689,2.199c-0.035,0.155-0.086,0.316-0.158,0.482c-0.074,0.166-0.162,0.319-0.268,0.458
			s-0.23,0.255-0.373,0.349c-0.146,0.095-0.307,0.143-0.484,0.143c-0.289,0-0.496-0.102-0.623-0.301
			c-0.129-0.2-0.221-0.427-0.275-0.683c-0.322-1.409-0.547-2.758-0.674-4.046c-0.129-1.287-0.193-2.575-0.193-3.862
			c0-0.311,0.053-0.58,0.158-0.808s0.248-0.417,0.426-0.566c0.176-0.149,0.389-0.261,0.631-0.333
			c0.246-0.072,0.502-0.108,0.768-0.108c0.033,0,0.086,0,0.158,0s0.141,0.008,0.209,0.025c0.066,0.016,0.121,0.041,0.166,0.074
			c0.043,0.034,0.061,0.078,0.051,0.134c-0.289,1.454-0.428,2.933-0.418,4.437c0.012,1.505,0.09,2.951,0.232,4.338
			c0.123-0.555,0.303-1.185,0.543-1.89c0.238-0.704,0.516-1.415,0.832-2.132c0.316-0.715,0.66-1.398,1.031-2.048
			c0.373-0.648,0.754-1.195,1.143-1.64c0.188-0.211,0.379-0.392,0.574-0.541c0.193-0.149,0.434-0.225,0.723-0.225
			c0.168,0,0.307,0.032,0.416,0.1c0.111,0.066,0.203,0.149,0.275,0.249c0.072,0.101,0.127,0.214,0.166,0.342s0.07,0.253,0.092,0.375
			c0.057,0.322,0.111,0.738,0.168,1.249c0.055,0.511,0.125,1.055,0.207,1.632c0.084,0.576,0.186,1.157,0.309,1.739
			c0.121,0.583,0.277,1.11,0.465,1.582c0.189,0.473,0.416,0.857,0.684,1.158c0.266,0.298,0.582,0.448,0.949,0.448
			c0.301,0,0.592-0.058,0.875-0.173c0.281-0.117,0.551-0.268,0.807-0.452c0.256-0.181,0.494-0.393,0.717-0.633
			c0.221-0.238,0.42-0.474,0.598-0.706L115.938,88.156z"/>
		<path d="M123.98,95.649c0,0.898-0.105,1.816-0.316,2.755s-0.545,1.801-1,2.59c-0.455,0.788-1.039,1.453-1.756,1.998
			c-0.717,0.544-1.58,0.882-2.588,1.017c-0.102,0.021-0.195,0.037-0.285,0.049c-0.088,0.011-0.188,0.016-0.299,0.016
			c-0.611,0-1.188-0.122-1.73-0.365c-0.545-0.244-1.02-0.574-1.424-0.991c-0.406-0.416-0.725-0.899-0.959-1.448
			c-0.232-0.55-0.348-1.124-0.348-1.723c0-0.667,0.135-1.305,0.406-1.915c0.271-0.611,0.631-1.174,1.074-1.69
			c0.443-0.516,0.945-0.972,1.508-1.366c0.561-0.395,1.135-0.707,1.723-0.94l0.1,0.217c-1.076,0.577-1.91,1.371-2.498,2.381
			s-0.881,2.126-0.881,3.348c0,0.498,0.068,0.984,0.207,1.456c0.139,0.473,0.348,0.886,0.625,1.241s0.625,0.641,1.041,0.857
			c0.416,0.216,0.896,0.325,1.439,0.325c0.766,0,1.404-0.2,1.914-0.6c0.512-0.4,0.918-0.899,1.225-1.499
			c0.305-0.6,0.521-1.252,0.65-1.957c0.127-0.704,0.189-1.362,0.189-1.973c0-0.533-0.031-1.054-0.1-1.565
			c-0.066-0.511-0.135-1.019-0.207-1.523c-0.072-0.506-0.143-1.013-0.209-1.523s-0.1-1.032-0.1-1.566
			c0-0.376,0.014-0.765,0.041-1.164c0.029-0.399,0.08-0.806,0.158-1.216c-0.488,0.578-1.051,1.068-1.689,1.474
			c-0.639,0.404-1.324,0.608-2.057,0.608c-0.455,0-0.863-0.087-1.225-0.26c-0.359-0.171-0.664-0.401-0.914-0.689
			c-0.25-0.289-0.439-0.63-0.566-1.024s-0.191-0.808-0.191-1.241c0-0.499,0.08-1.018,0.24-1.557c0.162-0.538,0.383-1.06,0.668-1.564
			c0.281-0.505,0.617-0.983,1.006-1.433s0.812-0.843,1.273-1.183c0.461-0.338,0.947-0.604,1.457-0.799
			c0.512-0.194,1.033-0.291,1.566-0.291c0.266,0,0.535,0.036,0.807,0.108s0.521,0.181,0.75,0.324
			c0.227,0.145,0.41,0.327,0.549,0.549c0.139,0.223,0.209,0.489,0.209,0.8c0,0.223-0.051,0.422-0.15,0.6s-0.229,0.336-0.383,0.475
			c-0.156,0.139-0.328,0.264-0.516,0.375c-0.189,0.11-0.373,0.205-0.551,0.282l-0.066-0.199c0.09-0.1,0.15-0.222,0.184-0.366
			s0.049-0.283,0.049-0.416c0-0.2-0.031-0.402-0.09-0.608c-0.062-0.205-0.15-0.394-0.268-0.566
			c-0.117-0.172-0.264-0.312-0.441-0.425c-0.176-0.11-0.377-0.166-0.6-0.166c-0.564,0-1.076,0.152-1.531,0.458
			s-0.84,0.691-1.156,1.157s-0.562,0.974-0.732,1.523c-0.174,0.55-0.26,1.068-0.26,1.557c0,0.322,0.031,0.649,0.092,0.983
			c0.061,0.332,0.164,0.633,0.309,0.898s0.342,0.486,0.592,0.657c0.248,0.174,0.568,0.26,0.957,0.26c0.6,0,1.154-0.158,1.664-0.475
			c0.512-0.316,0.967-0.692,1.365-1.126c0.156-0.443,0.359-0.862,0.609-1.257c0.248-0.393,0.557-0.734,0.924-1.023l0.283,0.2
			c-0.256,0.411-0.424,0.877-0.5,1.398c-0.078,0.521-0.117,1.032-0.117,1.532c0,0.589,0.045,1.176,0.133,1.765
			c0.09,0.588,0.188,1.182,0.291,1.782c0.105,0.599,0.203,1.204,0.293,1.813C123.936,94.396,123.98,95.017,123.98,95.649z"/>
	</g>
	<g>
		<path d="M95.332,124.529c0,0.91-0.223,1.758-0.674,2.547c-0.449,0.788-1.031,1.47-1.748,2.048
			c-0.715,0.576-1.512,1.03-2.389,1.356c-0.877,0.327-1.742,0.48-2.598,0.459h-0.268v-0.301c0.732-0.155,1.424-0.425,2.074-0.807
			c0.648-0.384,1.215-0.853,1.699-1.408c0.48-0.555,0.865-1.174,1.148-1.864c0.281-0.688,0.424-1.408,0.424-2.165
			c0-0.498-0.061-0.97-0.184-1.413c-0.121-0.446-0.311-0.828-0.566-1.149c-0.256-0.324-0.58-0.578-0.973-0.768
			c-0.395-0.189-0.863-0.282-1.408-0.282c-0.775,0-1.564,0.116-2.363,0.35c-0.801,0.233-1.572,0.561-2.314,0.983
			c-0.744,0.42-1.441,0.92-2.09,1.499c-0.65,0.575-1.215,1.208-1.699,1.897c-0.482,0.688-0.864,1.422-1.139,2.197
			c-0.279,0.777-0.417,1.571-0.417,2.38c0,0.866,0.125,1.613,0.374,2.241c0.25,0.627,0.589,1.177,1.016,1.649
			c0.428,0.472,0.924,0.874,1.49,1.205c0.566,0.332,1.17,0.636,1.814,0.908s1.301,0.523,1.975,0.757
			c0.67,0.233,1.328,0.482,1.973,0.75c0.643,0.267,1.248,0.562,1.814,0.892c0.566,0.327,1.062,0.716,1.49,1.165
			c0.428,0.448,0.766,0.982,1.016,1.597c0.25,0.617,0.375,1.341,0.375,2.174c0,0.91-0.188,1.722-0.559,2.433
			c-0.373,0.71-0.863,1.307-1.473,1.789c-0.611,0.482-1.311,0.848-2.098,1.1c-0.789,0.249-1.6,0.373-2.432,0.373
			c-0.898,0-1.73-0.152-2.498-0.456c-0.766-0.307-1.455-0.716-2.064-1.232c-0.609-0.519-1.143-1.112-1.598-1.784
			c-0.455-0.671-0.822-1.366-1.1-2.087l0.25-0.135c0.334,0.588,0.716,1.169,1.149,1.74c0.433,0.572,0.919,1.084,1.464,1.532
			c0.543,0.448,1.146,0.814,1.807,1.092s1.379,0.415,2.156,0.415c0.633,0,1.223-0.088,1.766-0.268
			c0.543-0.176,1.016-0.433,1.416-0.765c0.398-0.332,0.713-0.744,0.939-1.231c0.229-0.49,0.342-1.046,0.342-1.665
			c0-0.91-0.193-1.66-0.584-2.249c-0.389-0.588-0.898-1.086-1.531-1.499c-0.633-0.409-1.354-0.76-2.164-1.047
			c-0.811-0.291-1.639-0.581-2.488-0.874c-0.85-0.296-1.68-0.628-2.49-1.001c-0.81-0.371-1.533-0.841-2.166-1.406
			c-0.633-0.567-1.142-1.268-1.531-2.108c-0.389-0.837-0.583-1.867-0.583-3.088c0-1.11,0.172-2.155,0.518-3.138
			c0.343-0.983,0.817-1.883,1.423-2.705c0.604-0.822,1.317-1.559,2.14-2.207c0.82-0.648,1.707-1.201,2.654-1.657
			c0.949-0.454,1.941-0.801,2.973-1.04c1.033-0.238,2.07-0.357,3.115-0.357c0.742,0,1.445,0.088,2.105,0.265
			c0.66,0.179,1.232,0.453,1.715,0.824c0.482,0.374,0.865,0.854,1.148,1.442C95.191,123.02,95.332,123.718,95.332,124.529z"/>
		<path d="M104.775,137.9c0,0.775-0.129,1.496-0.385,2.162c-0.254,0.667-0.615,1.245-1.08,1.732
			c-0.467,0.488-1.025,0.872-1.674,1.149c-0.65,0.277-1.369,0.417-2.156,0.417c-0.699,0-1.33-0.132-1.891-0.392
			c-0.561-0.262-1.041-0.614-1.439-1.058c-0.4-0.443-0.705-0.962-0.918-1.556c-0.209-0.595-0.316-1.229-0.316-1.906
			c0-0.568,0.082-1.105,0.244-1.616c0.16-0.511,0.385-0.985,0.674-1.424c0.287-0.438,0.633-0.845,1.031-1.216
			c0.4-0.371,0.832-0.708,1.299-1.006l0.201,0.147c-0.467,0.545-0.834,1.144-1.1,1.8c-0.266,0.653-0.4,1.349-0.4,2.08
			c0,0.534,0.08,1.076,0.242,1.623c0.16,0.55,0.396,1.053,0.707,1.507c0.311,0.456,0.699,0.827,1.166,1.117
			c0.465,0.288,0.998,0.434,1.6,0.434c0.377,0,0.732-0.078,1.064-0.233s0.625-0.368,0.875-0.633c0.248-0.268,0.447-0.57,0.598-0.907
			c0.15-0.34,0.225-0.692,0.225-1.059c0-0.355-0.051-0.703-0.158-1.04c-0.105-0.34-0.252-0.656-0.439-0.949
			c-0.189-0.295-0.418-0.56-0.684-0.799c-0.266-0.238-0.555-0.436-0.865-0.591c-0.178-0.091-0.348-0.155-0.508-0.2
			c-0.162-0.044-0.336-0.096-0.525-0.15c-0.076-0.01-0.162-0.03-0.25-0.06c-0.09-0.025-0.172-0.06-0.25-0.099
			c-0.078-0.038-0.145-0.09-0.199-0.158c-0.057-0.067-0.084-0.15-0.084-0.248c0-0.203,0.074-0.384,0.217-0.55
			c0.145-0.169,0.316-0.314,0.518-0.444c0.199-0.127,0.41-0.226,0.633-0.298c0.221-0.072,0.416-0.108,0.582-0.108
			c0.566,0,1.064,0.145,1.498,0.433s0.793,0.656,1.082,1.1s0.506,0.931,0.65,1.465C104.703,136.899,104.775,137.41,104.775,137.9z"
			/>
		<path d="M115.797,137.9c0,0.775-0.127,1.496-0.383,2.162c-0.256,0.667-0.615,1.245-1.082,1.732
			c-0.467,0.488-1.023,0.872-1.674,1.149c-0.648,0.277-1.367,0.417-2.156,0.417c-0.699,0-1.328-0.132-1.889-0.392
			c-0.562-0.262-1.041-0.614-1.441-1.058c-0.398-0.443-0.705-0.962-0.916-1.556c-0.211-0.595-0.316-1.229-0.316-1.906
			c0-0.568,0.08-1.105,0.242-1.616c0.16-0.511,0.385-0.985,0.674-1.424c0.289-0.438,0.633-0.845,1.033-1.216
			c0.398-0.371,0.832-0.708,1.299-1.006l0.199,0.147c-0.467,0.545-0.832,1.144-1.1,1.8c-0.266,0.653-0.398,1.349-0.398,2.08
			c0,0.534,0.08,1.076,0.24,1.623c0.162,0.55,0.396,1.053,0.709,1.507c0.309,0.456,0.699,0.827,1.166,1.117
			c0.465,0.288,0.998,0.434,1.598,0.434c0.377,0,0.732-0.078,1.064-0.233c0.334-0.155,0.625-0.368,0.875-0.633
			c0.25-0.268,0.449-0.57,0.6-0.907c0.15-0.34,0.225-0.692,0.225-1.059c0-0.355-0.053-0.703-0.158-1.04
			c-0.105-0.34-0.254-0.656-0.441-0.949c-0.189-0.295-0.416-0.56-0.684-0.799c-0.266-0.238-0.555-0.436-0.863-0.591
			c-0.178-0.091-0.348-0.155-0.51-0.2c-0.16-0.044-0.336-0.096-0.523-0.15c-0.078-0.01-0.162-0.03-0.25-0.06
			c-0.09-0.025-0.172-0.06-0.25-0.099c-0.078-0.038-0.145-0.09-0.199-0.158c-0.057-0.067-0.084-0.15-0.084-0.248
			c0-0.203,0.072-0.384,0.217-0.55c0.145-0.169,0.316-0.314,0.516-0.444c0.199-0.127,0.412-0.226,0.633-0.298
			c0.223-0.072,0.416-0.108,0.582-0.108c0.566,0,1.066,0.145,1.5,0.433c0.432,0.288,0.793,0.656,1.082,1.1
			c0.287,0.443,0.504,0.931,0.65,1.465C115.725,136.899,115.797,137.41,115.797,137.9z"/>
		<path d="M131.615,140.432c-0.211,0.398-0.436,0.78-0.674,1.148c-0.238,0.365-0.508,0.688-0.809,0.965
			c-0.299,0.277-0.637,0.5-1.014,0.666c-0.379,0.166-0.811,0.249-1.301,0.249c-0.555,0-1.031-0.135-1.432-0.407
			c-0.398-0.272-0.74-0.633-1.023-1.081c-0.283-0.451-0.512-0.965-0.682-1.54c-0.174-0.579-0.314-1.167-0.426-1.767
			c-0.111-0.599-0.195-1.19-0.25-1.773c-0.055-0.584-0.105-1.107-0.148-1.574c-0.213,0.168-0.467,0.487-0.768,0.959
			c-0.299,0.473-0.605,1.022-0.916,1.655s-0.607,1.322-0.891,2.066c-0.281,0.742-0.514,1.476-0.689,2.196
			c-0.035,0.156-0.086,0.316-0.158,0.482c-0.074,0.169-0.162,0.319-0.268,0.459c-0.105,0.138-0.23,0.254-0.373,0.351
			c-0.146,0.093-0.307,0.14-0.484,0.14c-0.289,0-0.496-0.099-0.623-0.298c-0.129-0.2-0.221-0.428-0.275-0.683
			c-0.322-1.41-0.547-2.759-0.674-4.048c-0.129-1.286-0.193-2.575-0.193-3.861c0-0.312,0.053-0.581,0.158-0.809
			c0.105-0.227,0.248-0.415,0.424-0.565c0.178-0.15,0.391-0.263,0.633-0.332c0.246-0.073,0.502-0.109,0.768-0.109
			c0.033,0,0.086,0,0.158,0s0.141,0.008,0.209,0.023c0.066,0.019,0.121,0.042,0.166,0.075c0.043,0.034,0.061,0.078,0.051,0.135
			c-0.289,1.455-0.43,2.934-0.418,4.438s0.09,2.948,0.232,4.336c0.123-0.556,0.303-1.183,0.543-1.888
			c0.238-0.706,0.516-1.416,0.832-2.132s0.66-1.4,1.031-2.049c0.373-0.648,0.752-1.195,1.143-1.639
			c0.188-0.213,0.379-0.392,0.574-0.542c0.193-0.15,0.434-0.226,0.723-0.226c0.168,0,0.307,0.033,0.416,0.101
			c0.111,0.064,0.203,0.15,0.275,0.249c0.072,0.102,0.127,0.215,0.166,0.343c0.039,0.127,0.07,0.251,0.092,0.373
			c0.057,0.321,0.111,0.739,0.168,1.25c0.055,0.511,0.125,1.053,0.207,1.631c0.084,0.578,0.186,1.157,0.309,1.74
			c0.121,0.584,0.277,1.11,0.465,1.582c0.189,0.472,0.416,0.858,0.684,1.156c0.266,0.301,0.582,0.451,0.949,0.451
			c0.301,0,0.592-0.06,0.875-0.176c0.281-0.117,0.551-0.268,0.807-0.449c0.256-0.184,0.494-0.394,0.717-0.633
			c0.221-0.238,0.42-0.475,0.598-0.707L131.615,140.432z"/>
	</g>
</g>
</svg>
