<?xml version="1.0" encoding="utf-8"?>
<!-- Generator: Adobe Illustrator 23.0.1, SVG Export Plug-In . SVG Version: 6.00 Build 0)  -->
<!DOCTYPE svg PUBLIC "-//W3C//DTD SVG 1.1//EN" "http://www.w3.org/Graphics/SVG/1.1/DTD/svg11.dtd">

<svg version="1.1" id="Layer_1" xmlns="http://www.w3.org/2000/svg" xmlns:xlink="http://www.w3.org/1999/xlink" x="0px" y="0px"
	 viewBox="0 0 1100.3 100" style="enable-background:new 0 0 1100.3 100;" xml:space="preserve">
<g>
<path class="st0" d="M105.6,35.2h23.9v4.7h-19.2v9.6h17.8v4.7h-17.8v9.6h19.2v4.7h-23.9V35.2z M162.1,62.4l-10.6-27.2h-5l13,33.2
	h5.2l13-33.2h-5L162.1,62.4z M195.5,68.5h23.9v-4.7h-19.2v-9.6H218v-4.7h-17.8v-9.6h19.2v-4.7h-23.9V68.5z M262.7,60.5l-18.5-25.3
	h-4.7v33.2h4.7V43.2l18.5,25.3h4.7V35.2h-4.7V60.5z M289.1,68.5h4.7V35.2h-4.7V68.5z M338.7,60.5l-18.5-25.3h-4.7v33.2h4.7V43.2
	l18.5,25.3h4.7V35.2h-4.7V60.5z M376.6,54.6h12.6V61c-2.3,2.2-5.4,3.6-8.8,3.6c-7,0-12.7-5.7-12.7-12.7c0-7,5.7-12.7,12.7-12.7
	c3.4,0,6.5,1.4,8.8,3.6l3.3-3.3c-3.1-3-7.4-4.9-12.1-4.9c-9.6,0-17.4,7.8-17.4,17.4c0,9.6,7.8,17.4,17.4,17.4c3.2,0,6.2-0.8,8.8-2.4
	v1.6h4.7V50h-17.3V54.6z M436.5,39.9h12.2v28.6h4.7V39.9h12.2v-4.7h-29V39.9z M483.5,68.5h4.7V35.2h-4.7V68.5z M539.3,51.9
	c0,9.2-7.4,16.6-16.6,16.6h-12.9V35.2h12.9C531.9,35.2,539.3,42.7,539.3,51.9z M534.6,51.9c0-6.6-5.3-11.9-11.9-11.9h-8.2v23.9h8.2
	C529.3,63.8,534.6,58.5,534.6,51.9z M559,68.5h23.9v-4.7h-19.2v-9.6h17.8v-4.7h-17.8v-9.6h19.2v-4.7H559V68.5z M645.8,39.2
	c3.4,0,6.5,1.4,8.8,3.6l3.3-3.3c-3.1-3-7.4-4.9-12.1-4.9c-9.6,0-17.4,7.8-17.4,17.4c0,9.6,7.8,17.4,17.4,17.4
	c4.7,0,8.9-1.9,12.1-4.9l-3.3-3.3c-2.3,2.2-5.4,3.6-8.8,3.6c-7,0-12.7-5.7-12.7-12.7S638.8,39.2,645.8,39.2z M707.6,51.9
	c0,9.6-7.8,17.4-17.4,17.4c-9.6,0-17.4-7.8-17.4-17.4s7.8-17.4,17.4-17.4C699.8,34.5,707.6,42.3,707.6,51.9z M702.9,51.9
	c0-7-5.7-12.7-12.7-12.7c-7,0-12.7,5.7-12.7,12.7c0,7,5.7,12.7,12.7,12.7C697.2,64.6,702.9,58.9,702.9,51.9z M731.4,35.2h-4.7v33.2
	H751v-4.7h-19.7V35.2z M772.3,35.2h-4.7v33.2H792v-4.7h-19.7V35.2z M809.9,68.5h23.9v-4.7h-19.2v-9.6h17.8v-4.7h-17.8v-9.6h19.2
	v-4.7h-23.9V68.5z M868.4,39.2c3.4,0,6.5,1.4,8.8,3.6l3.3-3.3c-3.1-3-7.4-4.9-12.1-4.9c-9.6,0-17.4,7.8-17.4,17.4
	c0,9.6,7.8,17.4,17.4,17.4c4.7,0,8.9-1.9,12.1-4.9l-3.3-3.3c-2.3,2.2-5.4,3.6-8.8,3.6c-7,0-12.7-5.7-12.7-12.7
	S861.4,39.2,868.4,39.2z M895.3,39.9h12.2v28.6h4.7V39.9h12.2v-4.7h-29V39.9z M942.2,68.5h4.7V35.2h-4.7V68.5z M1001.3,51.9
	c0,9.6-7.8,17.4-17.4,17.4c-9.6,0-17.4-7.8-17.4-17.4s7.8-17.4,17.4-17.4C993.5,34.5,1001.3,42.3,1001.3,51.9z M996.6,51.9
	c0-7-5.7-12.7-12.7-12.7c-7,0-12.7,5.7-12.7,12.7c0,7,5.7,12.7,12.7,12.7C990.9,64.6,996.6,58.9,996.6,51.9z M1044.2,60.5
	l-18.5-25.3h-4.7v33.2h4.7V43.2l18.5,25.3h4.7V35.2h-4.7V60.5z M1086.3,51.3c0,3.9-3.1,7-7,7c-3.9,0-7-3.1-7-7c0-3.9,3.1-7,7-7
	C1083.2,44.3,1086.3,47.4,1086.3,51.3z M1084.9,51.3c0-3.1-2.5-5.6-5.6-5.6c-3.1,0-5.6,2.5-5.6,5.6c0,3.1,2.5,5.6,5.6,5.6
	C1082.4,56.9,1084.9,54.4,1084.9,51.3z M1081.1,52.1l1.3,3h-1.5l-1.2-2.8h-1.7v2.8h-1.4v-7.7h3.7c1.3,0,2.4,1.1,2.4,2.4
	C1082.7,50.9,1082,51.8,1081.1,52.1z M1081.2,49.9c0-0.6-0.5-1-1-1h-2.2v2.1h2.2C1080.8,50.9,1081.2,50.4,1081.2,49.9z M45.8,26.4
	c-3.9,0-7.2,2.1-9,5.3c1.1,0.2,2,0.6,2.8,0.9c1.3-2,3.6-3.3,6.2-3.3c2.6,0,4.8,1.3,6.2,3.3c0.8-0.3,1.7-0.7,2.8-0.9
	C53,28.5,49.6,26.4,45.8,26.4z M82.8,51.9c0,20.4-16.6,37-37,37c-20.4,0-37-16.6-37-37s16.6-37,37-37C66.2,14.9,82.8,31.5,82.8,51.9
	z M27.3,78c1.5-0.7,3.3-1.6,6.6-1.6c3.3,0,5,0.8,6.6,1.6c1.4,0.7,2.7,1.3,5.3,1.3c2.6,0,3.9-0.6,5.3-1.3c1.5-0.7,3.3-1.6,6.6-1.6
	c0.3,0,0.6,0,0.9,0l-0.7-5.6c0,0,0,0,0,0c-2.8,0-4,0.6-5.5,1.3c-1.5,0.7-3.3,1.6-6.6,1.6c-3.3,0-5-0.8-6.6-1.6
	c-1.4-0.7-2.7-1.3-5.3-1.3c-1.3,0-2.3,0.1-3.1,0.4l1.5-11.6c0.5,0,1-0.1,1.6-0.1c3.3,0,5,0.8,6.6,1.6c1.4,0.7,2.7,1.3,5.3,1.3
	c2.6,0,3.9-0.6,5.3-1.3c1.3-0.6,2.8-1.3,5.3-1.5l-0.7-5.5c-1.4,0.2-2.3,0.7-3.4,1.1c-1.5,0.7-3.3,1.6-6.6,1.6c-3.3,0-5-0.8-6.6-1.6
	c-1.4-0.7-2.7-1.3-5.3-1.3c-0.3,0-0.6,0-0.9,0l1.4-11.3c2.9,0.1,4.6,0.9,6,1.5c1.4,0.7,2.7,1.3,5.3,1.3c2.6,0,3.9-0.6,5.3-1.3
	c0.9-0.4,1.9-0.9,3.2-1.2l-0.7-5.3c-0.4,0.2-0.9,0.4-1.3,0.6C50.8,39.2,49,40,45.8,40c-3.3,0-5-0.8-6.6-1.6
	c-1.4-0.7-2.7-1.3-5.3-1.3c-2.6,0-3.9,0.6-5.3,1.3C27,39.2,25.3,40,22,40c-3.3,0-5-0.8-6.6-1.6c-0.3-0.2-0.7-0.3-1-0.5
	c-0.7,1.6-1.3,3.3-1.8,5c1.8,0.3,2.9,0.9,4,1.4c1.4,0.7,2.7,1.3,5.3,1.3c2.6,0,3.9-0.6,5.3-1.3c0.8-0.4,1.7-0.8,2.8-1.1l-0.4,3.2
	c-0.4,0.2-0.7,0.3-1.1,0.5c-1.5,0.7-3.3,1.6-6.6,1.6c-3.3,0-5-0.8-6.6-1.6c-1-0.5-2-0.9-3.4-1.1c-0.3,1.8-0.5,3.6-0.5,5.5
	c2.4,0.2,3.9,0.9,5.2,1.5c1.4,0.7,2.7,1.3,5.3,1.3c2.6,0,3.9-0.6,5.3-1.3c0.5-0.2,1-0.5,1.6-0.7l-0.4,3.3C27,56,25.3,56.9,22,56.9
	c-3.3,0-5-0.8-6.6-1.6c-1.1-0.6-2.2-1-3.9-1.2c0.1,1.9,0.4,3.8,0.8,5.7c1.9,0.3,3.2,0.9,4.3,1.4c1.4,0.7,2.7,1.3,5.3,1.3
	c2.6,0,3.9-0.6,5.3-1.3c0.2-0.1,0.3-0.2,0.5-0.2l-0.4,3.3c-1.3,0.6-2.9,1-5.4,1c-3.3,0-5-0.8-6.6-1.6c-0.7-0.3-1.4-0.7-2.2-0.9
	c0.8,2.3,1.8,4.5,3,6.6c0.1,0.1,0.2,0.1,0.4,0.2c1.4,0.7,2.7,1.3,5.3,1.3c2.3,0,3.5-0.4,4.7-1l-0.4,3.2c-1.1,0.4-2.4,0.6-4.3,0.6
	c-1.1,0-2-0.1-2.8-0.2c1.7,2.1,3.6,3.9,5.7,5.5C25.8,78.8,26.5,78.4,27.3,78z M76.1,38.4c-1.5,0.7-3.3,1.6-6.6,1.6s-5-0.8-6.6-1.6
	c-1.4-0.7-2.7-1.3-5.3-1.3c-0.4,0-0.8,0-1.2,0.1l1.1,8.4c-2.5,0-3.8,0.6-5.2,1.3c-1.5,0.7-3.3,1.6-6.6,1.6c-3.3,0-5-0.8-6.6-1.6
	c-0.8-0.4-1.5-0.7-2.3-0.9l-0.7,5.4c1.9,0.3,3.1,0.9,4.2,1.4c1.4,0.7,2.7,1.3,5.3,1.3c2.6,0,3.9-0.6,5.3-1.3
	c1.5-0.7,3.3-1.6,6.6-1.6c0.2,0,0.4,0,0.5,0l1.4,11.4c-0.6-0.1-1.2-0.1-2-0.1c-2.6,0-3.9,0.6-5.3,1.3c-1.5,0.7-3.3,1.6-6.6,1.6
	c-3.3,0-5-0.8-6.6-1.6c-1.3-0.6-2.4-1.1-4.4-1.3L34.1,68c3.2,0,4.9,0.8,6.4,1.6c1.4,0.7,2.7,1.3,5.3,1.3c2.6,0,3.9-0.6,5.3-1.3
	c1.5-0.7,3.3-1.6,6.6-1.6c1.1,0,1.9,0.1,2.7,0.2l1.5,11.6c0,0.1-0.1,0.2-0.2,0.1c-1-0.4-2.2-0.7-4-0.7c-2.6,0-3.9,0.6-5.3,1.3
	c-1.5,0.7-3.3,1.6-6.6,1.6c-3.3,0-5-0.8-6.6-1.6c-1.4-0.7-2.7-1.3-5.3-1.3c-2.6,0-3.9,0.6-5.3,1.3c-0.3,0.1-0.6,0.3-0.9,0.4
	c5.2,3.3,11.4,5.2,18.1,5.2c10.7,0,20.3-4.9,26.6-12.7c-0.8,0.2-1.7,0.2-2.8,0.2c-1.8,0-3.2-0.3-4.3-0.6l-0.4-3.2
	c1.2,0.6,2.4,1,4.7,1c2.6,0,3.9-0.6,5.3-1.3c0.1-0.1,0.2-0.1,0.4-0.2c1.2-2.1,2.3-4.3,3-6.6c-0.8,0.2-1.5,0.5-2.2,0.9
	c-1.5,0.7-3.3,1.6-6.6,1.6c-2.5,0-4.1-0.5-5.4-1l-0.4-3.3c0.2,0.1,0.3,0.2,0.5,0.2c1.4,0.7,2.7,1.3,5.3,1.3c2.6,0,3.9-0.6,5.3-1.3
	c1.1-0.5,2.4-1.1,4.3-1.4c0.4-1.8,0.7-3.7,0.8-5.7c-1.7,0.2-2.7,0.7-3.9,1.2c-1.5,0.7-3.3,1.6-6.6,1.6c-3.3,0-5-0.8-6.5-1.6L62.6,52
	c0.6,0.2,1.1,0.5,1.6,0.7c1.4,0.7,2.7,1.3,5.3,1.3c2.6,0,3.9-0.6,5.3-1.3c1.3-0.6,2.8-1.3,5.2-1.5c0-1.9-0.2-3.7-0.5-5.5
	c-1.4,0.2-2.4,0.7-3.4,1.1c-1.5,0.7-3.3,1.6-6.6,1.6s-5-0.8-6.6-1.6c-0.4-0.2-0.7-0.4-1.1-0.5l-0.4-3.2c1.1,0.3,1.9,0.7,2.7,1.1
	c1.4,0.7,2.7,1.3,5.3,1.3c2.6,0,3.9-0.6,5.3-1.3c1.1-0.5,2.3-1.1,4-1.4c-0.5-1.7-1.1-3.4-1.8-5C76.8,38.1,76.4,38.3,76.1,38.4z
	 M75.8,35.4C70,24.8,58.7,17.6,45.8,17.6s-24.2,7.2-30.1,17.8c0.3,0.1,0.7,0.3,1,0.5c1.4,0.7,2.7,1.3,5.3,1.3c2.6,0,3.9-0.6,5.3-1.3
	c1.5-0.7,3.3-1.6,6.6-1.6c3.3,0,5,0.8,6.6,1.6c1.4,0.7,2.7,1.3,5.3,1.3c2.6,0,3.9-0.6,5.3-1.3c1.5-0.7,3.3-1.6,6.6-1.6
	c3.3,0,5,0.8,6.6,1.6c1.4,0.7,2.7,1.3,5.3,1.3c2.6,0,3.9-0.6,5.3-1.3C75.2,35.7,75.5,35.5,75.8,35.4z"/>
</g>
</svg>
