<?xml version="1.0" encoding="utf-8"?>
<!-- Generator: Adobe Illustrator 16.0.0, SVG Export Plug-In . SVG Version: 6.00 Build 0)  -->
<!DOCTYPE svg PUBLIC "-//W3C//DTD SVG 1.1//EN" "http://www.w3.org/Graphics/SVG/1.1/DTD/svg11.dtd">
<svg version="1.1" id="Layer_1" xmlns="http://www.w3.org/2000/svg" xmlns:xlink="http://www.w3.org/1999/xlink" x="0px" y="0px"
	  viewBox="0 0 252 25.463" enable-background="new 0 0 252 25.463" xml:space="preserve">
<path fill="#FFFFFF" d="M52.08,24.121h0.871v0.813h-12.13v-0.43h0.283c3.373,0,3.373-1.688,3.373-3.386V4.248
	c0-1.698,0-3.386-3.373-3.386h-0.283V0.433h11.551v0.429H52.08c-3.373,0-3.373,1.688-3.373,3.386v16.294
	C48.707,22.239,48.707,24.121,52.08,24.121 M55.558,24.121h-0.872v0.813h6.192l0.564-6.439l-0.427-0.037
	C60.726,20.683,58.931,24.121,55.558,24.121 M124.21,21.12V0.433h-4.229V21.12c0,1.697,0,3.386-3.373,3.386h-0.283v0.429h11.549
	v-0.429h-0.293C124.21,24.506,124.21,22.817,124.21,21.12 M132.702,6.91l0.015-6.766c0,0-0.859,0.289-2.592,0.289h-4.179v0.814
	c4.682,0,6.328,3.966,6.328,5.663H132.702z M118.247,0.433h-4.18c-1.732,0-2.591-0.289-2.591-0.289l0.015,6.766h0.428
	c0-1.697,1.646-5.663,6.328-5.663V0.433z M79.072,24.194H78.28v0.74h5.627l0.512-5.854l-0.388-0.034
	C83.769,21.071,82.138,24.194,79.072,24.194 M72.847,20.942V5.692H65.68v0.391h0.258c3.065,0,3.065,1.533,3.065,3.076v12.309
	c0,1.542,0,3.077-3.065,3.077H65.68v0.39h11.024v-0.738h-0.792C72.847,24.194,72.847,22.485,72.847,20.942 M82.952,11.579h0.388
	l0.014-6.15c0,0-0.781,0.263-2.355,0.263h-6.575v0.739h2.777C81.455,6.431,82.952,10.036,82.952,11.579 M79.822,18.397v0.267h0.39
	v-7.571h-0.39v0.258c0,3.066-3.857,3.155-5.399,3.155v0.739C75.965,15.245,79.822,15.332,79.822,18.397 M202.936,24.121h-0.871
	v0.813h6.192l0.563-6.439l-0.428-0.037C208.104,20.683,206.309,24.121,202.936,24.121 M196.085,20.542V0.433H188.2v0.429h0.282
	c3.373,0,3.373,1.688,3.373,3.386V21.12c0,1.697,0,3.386-3.373,3.386H188.2v0.429h12.129v-0.812h-0.872
	C196.085,24.121,196.085,22.239,196.085,20.542 M207.204,6.91h0.428l0.015-6.766c0,0-0.858,0.289-2.59,0.289h-7.236v0.814h3.056
	C205.559,1.247,207.204,5.213,207.204,6.91 M203.762,16.077v0.293h0.43V8.041h-0.43v0.283c0,3.373-4.242,3.471-5.941,3.471v0.813
	C199.52,12.608,203.762,12.705,203.762,16.077 M105.635,7.304h0.428l0.015-6.442c0,0-0.902,0.092-2.59-0.29
	c-1.066-0.222-2.093-0.504-3.323-0.572v0.826C102.548,1.122,105.143,3.164,105.635,7.304 M101.277,10.999
	c-2.348-1.431-5.697-2.743-5.697-6.175c0-1.845,0.62-3.473,2.85-3.919V0.038c-3.494,0.314-6.98,2.072-6.98,6.269
	c0,4.063,3.515,5.764,6.154,7.372c2.348,1.432,5.546,2.909,5.546,6.562c0,2.419-1.519,4.104-4.176,4.402v0.81
	c4.36-0.338,8.458-2.757,8.458-7.081C107.432,14.308,103.916,12.607,101.277,10.999 M91.593,18.058l-0.428,0.037l0.284,6.439
	c0,0,0.902-0.092,2.59,0.291c1.029,0.214,2.024,0.54,3.198,0.638v-0.847C94.827,24.213,92.15,22.151,91.593,18.058 M181.461,7.304
	h0.497V0.862c0,0-1.104,0.092-3.086-0.29c-1.317-0.233-2.8-0.496-4.384-0.537v0.823C177.346,1.041,180.409,3.101,181.461,7.304
	 M159.344,12.687c0,7.755,4.695,12.225,13.41,12.628v-0.854c-5.632-0.636-8.875-5.369-8.875-11.774
	c0-6.468,2.371-11.234,8.875-11.792V0.064C165.098,0.477,159.344,4.545,159.344,12.687 M173.4,14.396h0.285
	c3.371,0,4.045,0.883,4.045,3.386v5.829c-1.029,0.565-2.149,0.854-3.242,0.914v0.816c1.584-0.041,3.064-0.304,4.384-0.537
	c1.787-0.345,2.888-0.396,3.086-0.402v-6.62c0-2.274,0.146-3.386,2.627-3.386v-0.43H173.4V14.396L173.4,14.396z M137.148,21.194
	l5.836-14.565l-0.461-1.26c-1.211,2.957-5.506,13.462-6.098,14.935c-0.688,1.719-2.365,4.202-4.619,4.202h-0.283v0.429h8.652v-0.429
	C137.691,24.506,136.282,23.327,137.148,21.194 M154.354,20.322c-0.621-1.55-6.334-16.876-7.457-19.889h-2.363
	c-0.395,0.964-0.749,1.837-1.036,2.543c1.177,3.218,2.957,8.085,4.459,12.19h-6.521l-0.326,0.813h7.146
	c1.212,3.312,2.19,5.984,2.433,6.644c0.646,1.76-0.274,1.899-2.76,1.899v0.43h10.211v-0.43h-0.283
	C155.6,24.522,155.039,22.039,154.354,20.322 M222.643,10.584l-0.762,0.762l-0.693-0.694l1.455-1.454h0.976v6.93h-0.976V10.584z
	 M229.172,12.458c-0.42-0.362-0.615-0.85-0.615-1.406c0-1.074,0.741-2.01,2.44-2.01c1.698,0,2.44,0.936,2.44,2.01
	c0,0.556-0.195,1.044-0.615,1.406c0.645,0.381,0.957,0.986,0.957,1.669c0,1.162-0.898,2.157-2.782,2.157s-2.782-0.995-2.782-2.157
	C228.215,13.444,228.527,12.839,229.172,12.458 M230.997,15.31c1.347,0,1.806-0.566,1.806-1.183s-0.459-1.122-1.806-1.122
	s-1.808,0.505-1.808,1.122C229.189,14.742,229.65,15.31,230.997,15.31 M230.997,12.028c1.151,0,1.464-0.439,1.464-0.976
	c0-0.537-0.312-1.035-1.464-1.035s-1.464,0.498-1.464,1.035C229.533,11.589,229.846,12.028,230.997,12.028 M241.957,10.701
	c-0.303-0.411-0.889-0.684-1.514-0.684c-1.142,0-1.736,0.918-1.807,2.382c0.4-0.41,0.995-0.664,1.807-0.664
	c1.621,0,2.588,1.006,2.588,2.245c0,1.24-0.967,2.305-2.588,2.305c-1.746,0-2.781-1.465-2.781-3.622s1.035-3.621,2.781-3.621
	c0.968,0,1.836,0.439,2.312,1.122L241.957,10.701z M240.443,15.31c1.084,0,1.611-0.625,1.611-1.328s-0.527-1.27-1.611-1.27
	s-1.61,0.566-1.61,1.27S239.557,15.31,240.443,15.31 M247.432,14.332c0.098,0.519,0.596,0.978,1.786,0.978
	c1.349,0,1.806-0.566,1.806-1.183s-0.457-1.122-1.806-1.122h-0.391v-0.977h0.391c1.151,0,1.466-0.439,1.466-0.975
	c0-0.537-0.313-1.035-1.466-1.035c-0.995,0-1.366,0.39-1.444,0.83l-0.967-0.166c0.156-0.899,0.908-1.64,2.411-1.64
	c1.698,0,2.44,0.936,2.44,2.011c0,0.555-0.195,1.044-0.615,1.405c0.645,0.381,0.957,0.986,0.957,1.669
	c0,1.162-0.898,2.157-2.782,2.157c-1.679,0-2.575-0.801-2.752-1.786L247.432,14.332z M4.978,9.198v0.976H0.976v2.001h3.709v0.976
	H0.976v2h4.002v0.977H0v-6.93H4.978z M8.813,14.176c0,0.742,0.81,1.134,1.806,1.134c0.995,0,1.806-0.431,1.806-1.134
	c0-0.702-0.811-0.937-1.806-1.132c-1.396-0.273-2.587-0.683-2.587-2.001c0-1.279,1.162-2.001,2.587-2.001
	c1.523,0,2.587,0.82,2.587,2.001H12.23c0-0.644-0.723-1.025-1.611-1.025c-0.986,0-1.611,0.381-1.611,1.025
	c0,0.546,0.742,0.859,1.611,1.025c1.532,0.293,2.781,0.761,2.781,2.108c0,1.349-1.249,2.107-2.781,2.107
	c-1.533,0-2.782-0.8-2.782-2.107H8.813z M21.851,9.198v0.976h-2.539v5.954h-0.976v-5.954h-2.537V9.198H21.851z M24.661,9.198h2.684
	c1.914,0,3.466,1.552,3.466,3.465c0,1.914-1.552,3.465-3.466,3.465h-2.684V9.198z M25.637,10.174v4.979h1.708
	c1.376,0,2.489-1.113,2.489-2.49c0-1.376-1.113-2.489-2.489-2.489H25.637z"/>
</svg>
