<?xml version="1.0" encoding="utf-8"?>
<!-- Generator: Adobe Illustrator 16.0.0, SVG Export Plug-In . SVG Version: 6.00 Build 0)  -->
<!DOCTYPE svg PUBLIC "-//W3C//DTD SVG 1.1//EN" "http://www.w3.org/Graphics/SVG/1.1/DTD/svg11.dtd">
<svg version="1.1" id="Layer_1" xmlns="http://www.w3.org/2000/svg" xmlns:xlink="http://www.w3.org/1999/xlink" x="0px" y="0px"
	 viewBox="133.5 50.5 169 187" enable-background="new 133.5 50.5 169 187" xml:space="preserve">
<g>
	<path fill="#093945" d="M216.466,222.477c18.64,0,36.158-7.253,49.335-20.434c13.179-13.178,20.434-30.698,20.434-49.334
		c0-10.49-2.27-20.577-6.748-29.97c-1.955-4.098-4.326-8.027-7.049-11.677c-3.326-4.459-6.92-7.943-10.788-11.504
		c-3.185-2.933-5.021-6.033-5.349-9.474c-0.314-3.286,0.836-6.49,3.252-9.361c2.236-2.671,5.438-4.287,8.949-4.551
		c3.512-0.267,7.608,1.116,10.066,3.573c0,0,1.922,2.756-0.256,4.933c-2.179,2.181-5.184,0.505-5.184,0.505
		c-1.001-1.002-2.726-1.535-4.143-1.409c-1.419,0.123-2.786,0.863-3.701,1.955c-1.07,1.281-1.301,2.621-1.199,3.803
		c0.142,1.638,1.486,3.151,2.512,4.097c5.103,4.702,8.339,7.867,12.033,12.82c3.023,4.054,5.658,8.417,7.826,12.97
		c4.98,10.44,7.502,21.641,7.502,33.291c0,20.697-8.059,40.16-22.695,54.795c-14.638,14.638-34.094,22.698-54.793,22.698
		s-40.159-8.061-54.795-22.698c-14.637-14.637-22.698-34.098-22.698-54.795c0-11.649,2.524-22.85,7.503-33.291
		c2.174-4.553,4.806-8.915,7.83-12.97c3.691-4.953,6.931-8.118,12.033-12.82c1.027-0.946,2.371-2.459,2.51-4.097
		c0.104-1.182-0.127-2.522-1.199-3.803c-0.916-1.091-2.283-1.83-3.701-1.955c-1.418-0.126-3.141,0.406-4.145,1.409
		c0,0-2.699,1.591-4.791-0.505c-2.095-2.095-0.646-4.933-0.646-4.933c2.456-2.457,6.551-3.839,10.062-3.573
		c3.514,0.264,6.713,1.879,8.951,4.551c2.412,2.871,3.564,6.075,3.25,9.361c-0.328,3.441-2.166,6.541-5.35,9.474
		c-3.867,3.561-7.461,7.044-10.787,11.504c-2.723,3.65-5.095,7.579-7.049,11.677c-4.479,9.394-6.75,19.478-6.75,29.97
		c0,18.639,7.259,36.157,20.436,49.334C180.311,215.222,197.828,222.477,216.466,222.477"/>
	<path fill="#093945" d="M211.041,85.066c-6.728,6.729-16.641,6.557-22.839,0.359c-6.198-6.202-6.198-16.285,0-22.482
		c6.199-6.201,16.284-6.196,22.481,0l2.534,2.536l-5.456,5.459l-2.536-2.537c-3.19-3.188-8.373-3.188-11.564,0
		c-3.188,3.186-3.188,8.374,0,11.564c3.187,3.186,8.103,3.46,11.564,0l16.667-16.665c6.729-6.727,16.641-6.556,22.841-0.357
		c6.197,6.197,6.197,16.281,0,22.481c-6.2,6.198-16.287,6.196-22.483,0l-2.535-2.535l5.459-5.461l2.536,2.537
		c3.188,3.186,8.372,3.186,11.563,0c3.186-3.187,3.186-8.375,0-11.564c-3.187-3.186-8.102-3.459-11.563,0L211.041,85.066z"/>
	<path fill="#093945" d="M239.337,161.498c-3.222,9.544-12.239,16.42-22.871,16.42c-13.331,0-24.14-10.807-24.14-24.143
		c0-13.332,10.807-24.14,24.14-24.14c10.632,0,19.649,6.874,22.871,16.419h26.756c-3.714-24.068-24.518-42.498-49.627-42.498
		c-27.734,0-50.219,22.486-50.219,50.219c0,27.736,22.484,50.219,50.219,50.219c25.109,0,45.913-18.429,49.627-42.496H239.337z
		 M216.466,196.415c-23.549,0-42.638-19.089-42.638-42.64c0-23.548,19.089-42.638,42.638-42.638
		c18.132,0,33.608,11.323,39.774,27.277h-11.918c-5.418-9.809-15.859-16.45-27.857-16.45c-17.568,0-31.811,14.243-31.811,31.811
		c0,17.569,14.242,31.812,31.811,31.812c11.998,0,22.439-6.645,27.857-16.453h11.918
		C250.074,185.094,234.598,196.415,216.466,196.415"/>
</g>
</svg>
