<?xml version="1.0" encoding="utf-8"?>
<!DOCTYPE svg PUBLIC "-//W3C//DTD SVG 1.1//EN" "http://www.w3.org/Graphics/SVG/1.1/DTD/svg11.dtd">
<!-- Generator: Adobe Illustrator 23.0.1, SVG Export Plug-In . SVG Version: 6.00 Build 0)  -->
<svg version="1.1" id="Layer_1" xmlns="http://www.w3.org/2000/svg" xmlns:xlink="http://www.w3.org/1999/xlink" x="0px" y="0px"
	 viewBox="0 0 266 267" style="enable-background:new 0 0 266 267;" xml:space="preserve">
<g>
<path class="st0" d="M117.5,29.3l-1.3-16l2.3-0.2l9.9,11.4l-1-12.2l2.3-0.2l1.3,16l-2.3,0.2L118.8,17l1,12.2L117.5,29.3z
	 M106.7,31.7l-4.2-15.5l-2.2,0.6l4.2,15.5L106.7,31.7z M244.7,111.8c0-2.1,1.7-3.7,3.7-3.7c2.1,0,3.7,1.7,3.7,3.7
	c0,2.1-1.7,3.7-3.7,3.7C246.4,115.6,244.7,113.9,244.7,111.8z M245.5,111.8c0,1.6,1.3,3,3,3c1.6,0,3-1.3,3-3c0-1.6-1.3-3-3-3
	C246.8,108.9,245.5,110.2,245.5,111.8z M43.7,77.6l-2-1.1l-4.5,8.1l-4.1-2.2l4.1-7.5l-2-1.1l-4.1,7.5l-4.1-2.2l4.5-8.1l-2-1.1L24,80
	l14.1,7.7L43.7,77.6z M74.1,46.1l-1.4-1.8L65.4,50l-2.8-3.7l6.8-5.2L68,39.3l-6.8,5.2l-2.8-3.7l7.4-5.6l-1.4-1.8l-9.2,7L65,53.1
	L74.1,46.1z M84.8,39.9l-5.1-11.1l13.2,7.3l2.1-0.9l-6.7-14.6l-2.1,0.9l5.1,11.1l-13.2-7.3L76,26.3l6.7,14.6L84.8,39.9z M149.1,30
	c1.5,0.2,3,0,4.4-0.5l-0.1,0.8l2.2,0.3l1.3-8.9l-8.3-1.2l-0.3,2.2l6,0.9l-0.4,3c-1.3,0.9-2.8,1.3-4.5,1.1c-3.4-0.5-5.7-3.6-5.2-7
	c0.5-3.4,3.6-5.7,7-5.2c1.6,0.2,3,1.1,4,2.3l1.8-1.4c-1.3-1.7-3.2-2.9-5.4-3.2c-4.6-0.7-8.8,2.5-9.5,7.1
	C141.3,25.1,144.5,29.4,149.1,30z M207.3,59l12-10.6l4.1,4.7c2.9,3.3,2.6,8.4-0.7,11.3c-3.3,2.9-8.4,2.6-11.3-0.7L207.3,59z
	 M219.1,51.5l-8.6,7.6l2.6,3c2.1,2.4,5.7,2.6,8.1,0.5c2.4-2.1,2.6-5.8,0.5-8.1L219.1,51.5z M247.7,113.9H247v-4.1h2
	c0.7,0,1.3,0.6,1.3,1.3c0,0.5-0.4,1-0.8,1.2l0.7,1.6h-0.8l-0.7-1.5h-0.9V113.9z M247.7,111.6h1.2c0.3,0,0.5-0.2,0.5-0.5
	s-0.2-0.5-0.5-0.5h-1.2V111.6z M227.9,88l2-1.1l-4.5-8.1l4.1-2.3l4.2,7.5l2-1.1l-4.2-7.5l4.1-2.3l4.5,8.1l2-1.1l-5.6-10.1l-14,7.8
	L227.9,88z M185.4,42.4l6.8-12l5.1,2.9l1.1-2l-12.2-6.9l-1.1,2l5.1,2.9l-6.8,12L185.4,42.4z M198.9,51.7l9.9-12.6l-1.8-1.4
	l-9.9,12.6L198.9,51.7z M14.2,124.7l13.8,0.5l0.1-2.3l-16-0.5l-0.4,11.8l2.3,0.1L14.2,124.7z M237.7,125l12.2-0.7l-11.7,9.6l0.1,2.3
	l16-0.9l-0.1-2.3l-12.2,0.7l11.7-9.6l-0.1-2.3l-16,0.9L237.7,125z M188.9,238.5l-7-11.9l-2,1.1l8.1,13.8l10.1-6l-1.1-2L188.9,238.5z
	 M207,226.7l-3-3.5l6.5-5.6l-1.5-1.7l-6.5,5.6l-3-3.5l7-6.1l-1.5-1.7l-8.7,7.6l10.5,12.1l8.7-7.6l-1.5-1.7L207,226.7z M169.1,246.9
	l-4.7-13l-2.1,0.8l5.5,15.1l11-4l-0.8-2.1L169.1,246.9z M227.8,202.9c0.2,1.5-0.2,3.1-1.3,4.4c-2.1,2.7-5.9,3.1-8.6,1.1
	c-2.7-2.1-3.1-5.9-1.1-8.6c1-1.3,2.5-2.1,4-2.3l-0.3-2.2c-2.1,0.3-4.1,1.3-5.5,3.1c-2.9,3.7-2.2,8.9,1.4,11.8
	c3.7,2.9,8.9,2.2,11.8-1.4c1.4-1.8,1.9-4,1.7-6.1L227.8,202.9z M155.6,244.6c0.7,4.6-2.5,8.8-7.1,9.5c-4.6,0.7-8.8-2.5-9.5-7.1
	c-0.7-4.6,2.5-8.8,7.1-9.5C150.7,236.8,154.9,240,155.6,244.6z M153.3,244.9c-0.5-3.4-3.6-5.7-6.9-5.2c-3.4,0.5-5.7,3.6-5.2,6.9
	c0.5,3.4,3.6,5.7,6.9,5.2C151.5,251.4,153.8,248.3,153.3,244.9z M132.9,205.1c-39.4,0-71.5-32.1-71.5-71.5S93.5,62,132.9,62
	c39.4,0,71.5,32.1,71.5,71.5S172.3,205.1,132.9,205.1z M74.8,101.7c0.7,0.3,1.3,0.6,1.9,0.9c2.8,1.3,5.2,2.5,10.3,2.5
	c5.1,0,7.5-1.2,10.3-2.5c3-1.4,6.3-3,12.7-3s9.7,1.6,12.7,3c2.8,1.3,5.2,2.5,10.3,2.5c5.1,0,7.5-1.2,10.3-2.5c3-1.4,6.3-3,12.7-3
	c6.4,0,9.7,1.6,12.7,3c2.8,1.3,5.2,2.5,10.3,2.5c5.1,0,7.5-1.2,10.3-2.5c0.6-0.3,1.2-0.6,1.9-0.9c-11.3-20.5-33.1-34.4-58.1-34.4
	S86.1,81.2,74.8,101.7z M97.3,184.1c3-1.4,6.3-3,12.7-3s9.7,1.6,12.7,3c2.8,1.3,5.2,2.5,10.3,2.5c5.1,0,7.5-1.2,10.3-2.5
	c3-1.4,6.3-3,12.7-3c0.6,0,1.1,0,1.7,0.1l-1.4-10.8c0,0,0,0,0,0c-5.3,0-7.8,1.1-10.6,2.5c-3,1.4-6.3,3-12.7,3c-6.4,0-9.7-1.6-12.7-3
	c-2.8-1.3-5.2-2.5-10.3-2.5c-2.5,0-4.4,0.3-5.9,0.7l2.8-22.4c1-0.1,2-0.2,3.1-0.2c6.4,0,9.7,1.6,12.7,3c2.8,1.3,5.2,2.5,10.3,2.5
	c5.1,0,7.5-1.2,10.3-2.5c2.6-1.2,5.4-2.6,10.2-2.9l-1.3-10.6c-2.7,0.4-4.5,1.3-6.5,2.2c-3,1.4-6.3,3-12.7,3c-6.4,0-9.7-1.6-12.7-3
	c-2.8-1.3-5.2-2.5-10.3-2.5c-0.6,0-1.2,0-1.7,0.1l2.8-21.8c5.7,0.2,8.9,1.7,11.7,3c2.8,1.3,5.2,2.5,10.3,2.5c5.1,0,7.5-1.2,10.3-2.5
	c1.7-0.8,3.6-1.7,6.2-2.3l-1.3-10.1c-0.9,0.3-1.7,0.7-2.5,1.1c-3,1.4-6.3,3-12.7,3c-6.4,0-9.7-1.6-12.7-3c-2.8-1.3-5.2-2.5-10.3-2.5
	c-5.1,0-7.5,1.2-10.3,2.5c-3,1.4-6.3,3-12.7,3c-6.4,0-9.7-1.6-12.7-3c-0.7-0.3-1.3-0.6-2-0.9c-1.4,3.1-2.5,6.3-3.4,9.6
	c3.4,0.6,5.7,1.7,7.8,2.7c2.8,1.3,5.2,2.5,10.3,2.5c5.1,0,7.5-1.2,10.3-2.5c1.5-0.7,3.2-1.5,5.3-2.1l-0.8,6.1
	c-0.7,0.3-1.4,0.6-2.2,1c-3,1.4-6.3,3-12.7,3c-6.4,0-9.7-1.6-12.7-3c-2-1-3.8-1.8-6.6-2.2c-0.6,3.5-1,7-1.1,10.6
	c4.7,0.4,7.5,1.7,10,2.9c2.8,1.3,5.2,2.5,10.3,2.5c5.1,0,7.5-1.2,10.3-2.5c1-0.5,2-1,3.2-1.4l-0.8,6.4c-3,1.4-6.3,3-12.6,3
	c-6.4,0-9.7-1.6-12.7-3c-2.2-1.1-4.2-2-7.5-2.3c0.2,3.7,0.8,7.4,1.6,11c3.7,0.5,6.1,1.7,8.3,2.7c2.8,1.3,5.2,2.5,10.3,2.5
	c5.1,0,7.5-1.2,10.3-2.5c0.3-0.2,0.7-0.3,1-0.5l-0.8,6.5c-2.5,1.1-5.6,2-10.5,2c-6.4,0-9.7-1.6-12.7-3c-1.4-0.7-2.6-1.3-4.2-1.7
	c1.5,4.5,3.5,8.7,5.9,12.7c0.2,0.1,0.5,0.2,0.7,0.3c2.8,1.3,5.2,2.5,10.3,2.5c4.4,0,6.8-0.8,9.1-1.9l-0.8,6.2
	c-2.1,0.7-4.7,1.2-8.3,1.2c-2.1,0-3.9-0.2-5.5-0.5c3.2,4,6.9,7.5,10.9,10.7C94.3,185.5,95.7,184.8,97.3,184.1z M184.3,175.3
	c-1.6,0.3-3.3,0.5-5.5,0.5c-3.6,0-6.2-0.5-8.3-1.2l-0.8-6.2c2.3,1.1,4.7,1.9,9.1,1.9c5.1,0,7.5-1.2,10.3-2.5
	c0.2-0.1,0.5-0.2,0.7-0.3c2.4-4,4.4-8.2,5.9-12.7c-1.5,0.5-2.8,1.1-4.2,1.7c-3,1.4-6.3,3-12.7,3c-4.8,0-7.9-0.9-10.5-2l-0.8-6.5
	c0.3,0.2,0.7,0.3,1,0.5c2.8,1.3,5.2,2.5,10.3,2.5c5.1,0,7.5-1.2,10.3-2.5c2.2-1,4.6-2.2,8.3-2.7c0.8-3.6,1.4-7.2,1.6-11
	c-3.3,0.3-5.3,1.3-7.5,2.3c-3,1.4-6.3,3-12.7,3c-6.3,0-9.7-1.6-12.6-3l-0.8-6.4c1.2,0.4,2.2,0.9,3.2,1.4c2.8,1.3,5.2,2.5,10.3,2.5
	c5.1,0,7.5-1.2,10.3-2.5c2.5-1.2,5.3-2.6,10-2.9c-0.1-3.6-0.4-7.2-1.1-10.6c-2.8,0.4-4.6,1.3-6.6,2.2c-3,1.4-6.3,3-12.7,3
	c-6.4,0-9.7-1.6-12.7-3c-0.7-0.3-1.4-0.7-2.1-1l-0.8-6.1c2.1,0.6,3.8,1.4,5.3,2.1c2.8,1.3,5.2,2.5,10.3,2.5c5.1,0,7.5-1.2,10.3-2.5
	c2.1-1,4.4-2.1,7.8-2.7c-0.9-3.3-2-6.5-3.4-9.6c-0.7,0.3-1.3,0.6-2,0.9c-3,1.4-6.3,3-12.7,3c-6.4,0-9.7-1.6-12.7-3
	c-2.8-1.3-5.2-2.5-10.3-2.5c-0.9,0-1.6,0-2.4,0.1l2,16.2c-4.9,0-7.3,1.2-10,2.5c-3,1.4-6.3,3-12.7,3c-6.4,0-9.7-1.6-12.7-3
	c-1.5-0.7-2.8-1.3-4.5-1.8l-1.3,10.4c3.6,0.5,6,1.7,8.2,2.7c2.8,1.3,5.2,2.5,10.3,2.5c5.1,0,7.5-1.2,10.3-2.5c3-1.4,6.3-3,12.7-3
	c0.4,0,0.7,0,1.1,0l2.8,22.1c-1.1-0.2-2.4-0.3-3.8-0.3c-5.1,0-7.5,1.2-10.3,2.5c-3,1.4-6.3,3-12.7,3c-6.4,0-9.7-1.6-12.7-3
	c-2.4-1.2-4.6-2.2-8.5-2.4l-1.4,10.8c6.1,0.1,9.4,1.6,12.3,3c2.8,1.3,5.2,2.5,10.3,2.5c5.1,0,7.5-1.2,10.3-2.5c3-1.4,6.3-3,12.7-3
	c2,0,3.7,0.2,5.2,0.4l2.8,22.4c0,0.2-0.2,0.4-0.4,0.3c-2-0.8-4.2-1.3-7.7-1.3c-5.1,0-7.5,1.2-10.3,2.5c-3,1.4-6.3,3-12.7,3
	c-6.4,0-9.7-1.6-12.7-3c-2.8-1.3-5.2-2.5-10.3-2.5c-5.1,0-7.5,1.2-10.3,2.5c-0.5,0.3-1.1,0.5-1.7,0.8c10.1,6.3,22.1,10,34.9,10
	C153.6,199.8,172.1,190.3,184.3,175.3z M19.1,145l1.2,8.5l2.2-0.3l-1.2-8.5l4.6-0.7l1.3,9.2l2.2-0.3l-1.7-11.4L12,143.7l1.7,11.4
	l2.2-0.3l-1.3-9.2L19.1,145z M230.9,177.7l-2-1l-6.4,12.5l2,1l2.7-5.2l12.3,6.3l1-2l-12.3-6.3L230.9,177.7z M231.4,170.3l15.2,5.2
	l0.7-2.1l-15.2-5.2L231.4,170.3z M252.5,155.2c-0.8,4.6-5.1,7.7-9.6,6.9c-4.6-0.8-7.7-5.1-6.9-9.6c0.8-4.6,5.1-7.7,9.6-6.9
	C250.1,146.3,253.2,150.6,252.5,155.2z M245.2,147.8c-3.3-0.6-6.5,1.7-7,5.1c-0.6,3.3,1.7,6.5,5.1,7c3.3,0.5,6.5-1.7,7-5.1
	C250.8,151.5,248.5,148.4,245.2,147.8z M44.4,50.6L51,63l-13.3-4.7l-1.6,1.8l16.3,5.7L54,64L46,48.8L44.4,50.6z M42.2,191.2l2-1.1
	l-7-12.2l-2,1.1l2.9,5.1l-12,6.9l1.1,2l12-6.9L42.2,191.2z M51.6,200.2l1.7,1.9l-8,15.3l-1.6-1.8l2.1-4.1l-4.6-5.2l-4.3,1.6
	l-1.6-1.8L51.6,200.2z M50.2,203.1l-6.7,2.4l3.4,3.9L50.2,203.1z M26.8,168.8c-0.3-2-0.2-3.9,1-4.3c1.4-0.5,2.7,0.6,3.5,2.7
	c0.7,1.9,0.4,3.8-1,4.3l0.8,2.1c2.6-0.9,3.6-3.9,2.4-7.2c-1.1-3.1-3.6-5.1-6.4-4.1c-2.9,1-2.9,3.9-2.4,7.2c0.3,2.3,0.5,4.3-1.1,4.8
	c-1.5,0.5-3.1-0.9-3.9-3.1c-0.8-2.2-0.5-4.2,1.1-4.8l-0.8-2.1c-2.9,1-3.6,4.4-2.5,7.7c1.2,3.3,3.8,5.5,6.8,4.5
	C27.3,175.5,27.4,172.4,26.8,168.8z M74,239.7l10.4,5l1-2l-8.4-4l2-4.2l7.7,3.7l1-2l-7.7-3.7l2-4.2l8.4,4l1-2l-10.4-5L74,239.7z
	 M68.2,215.9c-3.7-2.8-8.9-2.1-11.8,1.5c-2.8,3.7-2.1,8.9,1.5,11.8c1.2,0.9,2.6,1.5,4.1,1.7l-0.5,0.6l1.8,1.4l5.5-7.1l-6.6-5.1
	l-1.4,1.8l4.8,3.7l-1.9,2.4c-1.5,0.2-3.1-0.2-4.4-1.2c-2.7-2.1-3.2-5.9-1.1-8.6c2.1-2.7,5.9-3.2,8.6-1.1c1.3,1,2.1,2.4,2.3,4
	l2.2-0.3C71.1,219.3,70.1,217.3,68.2,215.9z M125.1,240.3c1.6,0.1,3.1,0.9,4.1,2l1.7-1.5c-1.4-1.6-3.4-2.6-5.7-2.8
	c-4.6-0.3-8.6,3.2-8.9,7.8c-0.3,4.6,3.2,8.6,7.8,8.9c2.3,0.2,4.4-0.6,6-2l-1.5-1.7c-1.2,1-2.7,1.5-4.4,1.4c-3.4-0.2-5.9-3.1-5.7-6.5
	C118.8,242.6,121.7,240,125.1,240.3z M132.9,89.9c5,0,9.4,2.5,12,6.4c1.5-0.7,3.2-1.3,5.4-1.7c-3.4-6.1-9.9-10.2-17.4-10.2
	c-7.5,0-14,4.1-17.4,10.2c2.2,0.4,3.9,1.1,5.4,1.8C123.5,92.4,127.9,89.9,132.9,89.9z"/>
</g>
</svg>
