<?xml version="1.0" encoding="utf-8"?>
<!-- Generator: Adobe Illustrator 16.0.0, SVG Export Plug-In . SVG Version: 6.00 Build 0)  -->
<!DOCTYPE svg PUBLIC "-//W3C//DTD SVG 1.1//EN" "http://www.w3.org/Graphics/SVG/1.1/DTD/svg11.dtd">
<svg version="1.1" id="Layer_1" xmlns="http://www.w3.org/2000/svg" xmlns:xlink="http://www.w3.org/1999/xlink" x="0px" y="0px"
	 viewBox="-292 -36.368 800 100" enable-background="new -292 -36.368 800 100" xml:space="preserve">
<g>
	<g>
		<path fill="#001D34" d="M-180.729,33.756c-9.473,0-17.142-7.668-17.142-17.147c0-9.467,7.668-17.139,17.142-17.139
			c4.669,0,8.832,1.847,11.921,4.851l-3.227,3.283c-2.268-2.17-5.317-3.515-8.694-3.515c-6.928,0-12.52,5.593-12.52,12.523
			c0,6.934,5.591,12.527,12.52,12.527c3.373,0,6.427-1.337,8.694-3.511l3.227,3.279C-171.9,31.905-176.107,33.756-180.729,33.756"/>
		<path fill="#001D34" d="M-122.672,33.013h-4.941l-3.422-8.686h-14.182l-3.373,8.686h-4.941l12.843-32.806h5.178L-122.672,33.013z
			 M-143.416,19.705h10.578l-5.264-13.485L-143.416,19.705z"/>
		<path fill="#001D34" d="M-100.768,22.624v10.394h-4.618V0.207h14.647c6.19,0,11.227,5.039,11.227,11.23
			s-5.037,11.186-11.227,11.186H-100.768z M-84.129,11.438c0-3.65-2.957-6.607-6.609-6.607h-10.029v13.162h10.029
			C-87.086,17.993-84.129,15.085-84.129,11.438"/>
		<polygon fill="#001D34" points="-37.781,0.207 -37.781,4.831 -56.728,4.831 -56.728,14.299 -39.167,14.299 -39.167,18.919
			-56.728,18.919 -56.728,28.393 -37.781,28.393 -37.781,33.013 -61.344,33.013 -61.344,0.207 		"/>
		<path fill="#001D34" d="M23.397,33.756c-9.477,0-17.145-7.668-17.145-17.147c0-9.467,7.668-17.139,17.145-17.139
			c4.664,0,8.827,1.847,11.921,4.851l-3.234,3.283c-2.264-2.17-5.31-3.515-8.687-3.515c-6.93,0-12.527,5.593-12.527,12.523
			c0,6.934,5.597,12.527,12.527,12.527c3.374,0,6.423-1.337,8.687-3.511l3.234,3.279C32.224,31.905,28.012,33.756,23.397,33.756"/>
		<path fill="#001D34" d="M67.551-0.531c9.477,0,17.14,7.671,17.14,17.139c0,9.479-7.663,17.147-17.14,17.147
			c-9.473,0-17.145-7.668-17.145-17.147C50.41,7.141,58.082-0.531,67.551-0.531 M67.551,29.135c6.93,0,12.52-5.593,12.52-12.527
			c0-6.926-5.589-12.522-12.52-12.522c-6.932,0-12.523,5.593-12.523,12.522C55.028,23.543,60.62,29.135,67.551,29.135"/>
		<path fill="#001D34" d="M103.878,0.207h12.712c9.045,0,16.391,7.345,16.391,16.401c0,9.061-7.346,16.405-16.391,16.405h-12.712
			V0.207z M108.496,4.831v23.562h8.094c6.512,0,11.777-5.263,11.777-11.785c0-6.507-5.266-11.777-11.777-11.777H108.496z"/>
		<path fill="#001D34" d="M178.086,27.05c1.108,1.3,2.725,2.086,4.568,2.086c3.334,0,6.008-2.688,6.008-6.008V0.207h4.62v22.92
			c0,5.868-4.756,10.624-10.628,10.624c-3.092,0-5.913-1.341-7.845-3.463L178.086,27.05z"/>
		<polygon fill="#001D34" points="237.881,0.207 237.881,4.831 218.931,4.831 218.931,14.299 236.485,14.299 236.485,18.919
			218.931,18.919 218.931,28.393 237.881,28.393 237.881,33.013 214.311,33.013 214.311,0.207 		"/>
		<polygon fill="#001D34" points="255.523,0.207 260.327,0.207 267.165,24.515 274.011,0.207 278.822,0.207 285.646,24.515
			292.498,0.207 297.295,0.207 288.059,33.013 283.251,33.013 276.409,8.757 269.57,33.013 264.771,33.013 		"/>
		<polygon fill="#001D34" points="339.297,0.207 339.297,4.831 320.351,4.831 320.351,14.299 337.919,14.299 337.919,18.919
			320.351,18.919 320.351,28.393 339.297,28.393 339.297,33.013 315.73,33.013 315.73,0.207 		"/>
		<polygon fill="#001D34" points="358.893,0.207 363.509,0.207 363.509,28.393 382.922,28.393 382.922,33.013 358.893,33.013 		"/>
		<path fill="#001D34" d="M415.357,0.207c5.81,0,10.532,4.715,10.532,10.537c0,4.987-3.419,9.101-8.042,10.209l7.297,12.061h-5.348
			l-7.128-11.781h-8.039v11.781h-4.624V0.207H415.357z M421.27,10.744c0-3.287-2.629-5.913-5.912-5.913h-10.72v11.777h10.72
			C418.641,16.608,421.27,14.023,421.27,10.744"/>
		<polygon fill="#001D34" points="453.705,19.565 440.58,0.207 446.177,0.207 456.02,14.809 465.865,0.207 471.451,0.207
			458.333,19.565 458.333,33.013 453.705,33.013 		"/>
		<path fill="#001D34" d="M492.057,9.638c3.978,0,7.191,3.217,7.191,7.194c0,3.974-3.214,7.19-7.191,7.19
			c-3.977,0-7.19-3.217-7.19-7.19C484.866,12.855,488.08,9.638,492.057,9.638 M492.057,22.561c3.159,0,5.726-2.57,5.726-5.725
			c0-3.155-2.57-5.733-5.726-5.733c-3.154,0-5.725,2.578-5.725,5.733C486.332,19.991,488.902,22.561,492.057,22.561 M489.248,12.855
			h3.771c1.377,0,2.516,1.143,2.516,2.512c0,1.055-0.665,1.962-1.605,2.344l1.348,3.092h-1.557l-1.256-2.923h-1.756v2.923h-1.465
			v-7.947H489.248z M490.717,16.425h2.303c0.588,0,1.058-0.47,1.058-1.054s-0.47-1.05-1.058-1.05h-2.303V16.425z"/>
	</g>
	<g>
		<path fill="#001D34" d="M-239.621-19.69c-0.309-3.592-3.327-6.419-6.998-6.419c-3.667,0-6.688,2.824-6.996,6.419
			c-16.862,3.272-29.633,18.146-29.633,35.958c0,20.198,16.435,36.633,36.629,36.633c20.203,0,36.631-16.435,36.631-36.633
			C-209.987-1.544-222.755-16.418-239.621-19.69 M-246.619-23.55c2.462,0,4.468,2.005,4.468,4.462c0,2.464-2.005,4.47-4.468,4.47
			c-2.46,0-4.46-2.005-4.46-4.47C-251.075-21.545-249.079-23.55-246.619-23.55 M-253.361-17.13c0.849,2.93,3.55,5.071,6.743,5.071
			c3.201,0,5.896-2.141,6.75-5.071c14.354,2.897,25.471,14.848,27.11,29.615c-2.211,0.007-3.581-0.051-5.505-0.852
			c-2.957-1.234-5.353-3.654-7.887-6.218c-1.493-1.517-3.039-3.081-4.772-4.458c-4.787-3.831-9.929-5.689-15.7-5.689
			c-5.777,0-10.915,1.862-15.713,5.689c-1.726,1.377-3.269,2.941-4.769,4.458c-2.534,2.563-4.931,4.984-7.885,6.218
			c-1.926,0.801-3.294,0.863-5.496,0.852C-278.841-2.282-267.721-14.237-253.361-17.13 M-246.619,50.337
			c-11.917,0-22.426-6.151-28.517-15.446c1.32-0.298,2.631-0.867,3.757-1.638c1.315-0.896,2.947-1.437,4.377-1.437
			c1.418,0,3.054,0.54,4.369,1.437c1.722,1.175,3.893,1.88,5.819,1.88c1.917,0,4.091-0.705,5.813-1.88
			c1.313-0.896,2.944-1.437,4.371-1.437c1.421,0,3.057,0.54,4.365,1.437c1.729,1.175,3.9,1.88,5.819,1.88
			c1.917,0,4.095-0.705,5.813-1.88c1.32-0.896,2.951-1.437,4.374-1.437c1.425,0,3.061,0.54,4.369,1.437
			c1.136,0.774,2.464,1.34,3.788,1.642C-224.19,44.185-234.698,50.337-246.619,50.337 M-216.684,32.544
			c-1.467-0.154-2.87-0.797-3.761-1.406c-1.744-1.194-3.863-1.881-5.813-1.881c-1.944,0-4.069,0.687-5.819,1.881
			c-1.012,0.693-2.696,1.432-4.369,1.432c-1.674,0-3.358-0.738-4.374-1.432c-1.746-1.194-3.86-1.881-5.81-1.881
			c-1.948,0-4.069,0.687-5.819,1.881c-1.015,0.693-2.692,1.432-4.365,1.432c-1.678,0-3.362-0.738-4.374-1.432
			c-1.75-1.194-3.867-1.881-5.813-1.881c-1.956,0-4.073,0.687-5.819,1.881c-0.883,0.605-2.275,1.244-3.722,1.398
			c-2.099-3.841-3.483-8.127-3.957-12.685h19.373l0.112-1.164c0.116-1.256,0.402-2.482,0.843-3.657h27.11
			c0.435,1.175,0.725,2.401,0.847,3.657l0.112,1.164h19.367C-213.214,24.409-214.589,28.698-216.684,32.544 M-258.919,12.477
			c0.7-1.124,1.553-2.16,2.549-3.07c2.666-2.438,6.135-3.786,9.756-3.786c3.628,0,7.091,1.348,9.761,3.786
			c0.994,0.911,1.851,1.946,2.547,3.07H-258.919z M-229.817,17.3c-0.617-3.757-2.477-7.191-5.314-9.78
			c-3.14-2.875-7.22-4.458-11.488-4.458c-4.262,0-8.338,1.579-11.482,4.458c-2.835,2.589-4.701,6.023-5.314,9.78h-17.253
			c-0.015-0.346-0.022-0.691-0.022-1.029c0-0.414,0.011-0.818,0.026-1.227c0.169,0,0.343,0,0.505,0c2.229,0,3.898-0.105,6.162-1.05
			c3.434-1.432,6.126-4.153,8.722-6.783c1.44-1.458,2.929-2.967,4.547-4.256c4.317-3.449,8.935-5.123,14.109-5.123
			c5.171,0,9.786,1.674,14.103,5.123c1.608,1.289,3.102,2.798,4.55,4.256c2.591,2.63,5.283,5.351,8.713,6.783
			c2.437,1.014,4.194,1.062,6.682,1.05c0.011,0.404,0.02,0.812,0.02,1.227c0,0.338-0.009,0.684-0.009,1.029H-229.817z"/>
	</g>
</g>
</svg>
