<?xml version="1.0" encoding="utf-8"?>
<!-- Generator: Adobe Illustrator 23.0.1, SVG Export Plug-In . SVG Version: 6.00 Build 0)  -->
<!DOCTYPE svg PUBLIC "-//W3C//DTD SVG 1.1//EN" "http://www.w3.org/Graphics/SVG/1.1/DTD/svg11.dtd">

<svg version="1.1" id="Layer_1" xmlns="http://www.w3.org/2000/svg" xmlns:xlink="http://www.w3.org/1999/xlink" x="0px" y="0px"
	 viewBox="0 0 156 164" style="enable-background:new 0 0 156 164;" xml:space="preserve">
<g>
<path class="st0" d="M78,11.3C39,11.3,7.3,43,7.3,82S39,152.7,78,152.7c39,0,70.7-31.7,70.7-70.7S117,11.3,78,11.3z M78,16.5
	c24.7,0,46.3,13.8,57.4,34c-0.7,0.3-1.3,0.6-1.9,0.9c-2.7,1.3-5.1,2.5-10.2,2.5c-5.1,0-7.4-1.1-10.2-2.5c-2.9-1.4-6.2-3-12.5-3
	c-6.3,0-9.6,1.6-12.5,3c-2.7,1.3-5.1,2.5-10.2,2.5c-5.1,0-7.4-1.1-10.2-2.5c-2.9-1.4-6.2-3-12.5-3c-6.3,0-9.6,1.6-12.5,3
	c-2.7,1.3-5.1,2.5-10.2,2.5c-5.1,0-7.4-1.1-10.2-2.5c-0.6-0.3-1.2-0.6-1.9-0.9C31.7,30.3,53.3,16.5,78,16.5z M38,133.8
	c-4-3.1-7.6-6.6-10.8-10.5c1.5,0.3,3.3,0.5,5.4,0.5c3.5,0,6.1-0.5,8.2-1.2l0.8-6.2c-2.3,1.1-4.7,1.9-9,1.9c-5.1,0-7.4-1.1-10.2-2.5
	c-0.2-0.1-0.5-0.2-0.7-0.3c-2.4-3.9-4.3-8.1-5.8-12.6c1.5,0.4,2.8,1,4.1,1.7c2.9,1.4,6.2,3,12.5,3c4.8,0,7.9-0.9,10.3-2l0.8-6.4
	c-0.3,0.2-0.7,0.3-1,0.5c-2.7,1.3-5.1,2.5-10.2,2.5c-5.1,0-7.4-1.1-10.2-2.5c-2.2-1-4.5-2.2-8.2-2.7c-0.8-3.5-1.4-7.1-1.6-10.8
	c3.3,0.3,5.2,1.3,7.4,2.3c2.9,1.4,6.2,3,12.5,3c6.3,0,9.6-1.6,12.5-3l0.8-6.3c-1.1,0.4-2.2,0.9-3.1,1.4c-2.7,1.3-5.1,2.5-10.2,2.5
	c-5.1,0-7.4-1.1-10.2-2.5c-2.5-1.2-5.3-2.5-9.9-2.9c0.1-3.6,0.4-7.1,1-10.5c2.7,0.4,4.5,1.2,6.5,2.2c2.9,1.4,6.2,3,12.5,3
	c6.3,0,9.6-1.6,12.5-3c0.7-0.3,1.4-0.7,2.1-1l0.8-6c-2.1,0.6-3.7,1.4-5.3,2.1C40,68.8,37.7,70,32.6,70c-5.1,0-7.4-1.1-10.2-2.5
	c-2.1-1-4.3-2.1-7.7-2.6c0.9-3.3,2-6.4,3.4-9.5c0.7,0.3,1.3,0.6,1.9,0.9c2.9,1.4,6.2,3,12.5,3c6.3,0,9.6-1.6,12.5-3
	c2.7-1.3,5.1-2.5,10.2-2.5c5.1,0,7.4,1.1,10.2,2.5c2.9,1.4,6.2,3,12.5,3c6.3,0,9.6-1.6,12.5-3c0.8-0.4,1.6-0.8,2.5-1.1l1.3,10
	c-2.5,0.6-4.4,1.5-6.1,2.3C85.4,68.8,83,70,78,70c-5.1,0-7.4-1.1-10.2-2.5c-2.8-1.3-5.9-2.8-11.5-3l-2.7,21.6c0.5,0,1.1-0.1,1.7-0.1
	c5.1,0,7.4,1.1,10.2,2.5c2.9,1.4,6.2,3,12.5,3c6.3,0,9.6-1.6,12.5-3c2-0.9,3.7-1.8,6.4-2.2l1.3,10.5c-4.8,0.3-7.6,1.7-10.1,2.9
	c-2.7,1.3-5.1,2.5-10.2,2.5c-5.1,0-7.4-1.1-10.2-2.5c-2.9-1.4-6.2-3-12.5-3c-1.1,0-2.1,0.1-3.1,0.2L49.4,119
	c1.6-0.4,3.4-0.7,5.9-0.7c5.1,0,7.4,1.1,10.2,2.5c2.9,1.4,6.2,3,12.5,3c6.3,0,9.6-1.6,12.5-3c2.8-1.3,5.2-2.5,10.5-2.5c0,0,0,0,0,0
	l1.4,10.7c-0.5,0-1.1-0.1-1.7-0.1c-6.3,0-9.6,1.6-12.5,3c-2.7,1.3-5.1,2.5-10.2,2.5c-5.1,0-7.4-1.1-10.2-2.5c-2.9-1.4-6.2-3-12.5-3
	c-6.3,0-9.6,1.6-12.5,3C41.3,132.7,39.8,133.4,38,133.8z M141.7,97.1c-3.6,0.5-6,1.6-8.2,2.7c-2.7,1.3-5.1,2.5-10.2,2.5
	c-5.1,0-7.4-1.1-10.2-2.5c-0.3-0.2-0.6-0.3-1-0.5l0.8,6.4c2.5,1.1,5.5,2,10.3,2c6.3,0,9.6-1.6,12.5-3c1.3-0.6,2.6-1.2,4.1-1.7
	c-1.5,4.4-3.5,8.6-5.8,12.6c-0.2,0.1-0.5,0.2-0.7,0.3c-2.7,1.3-5.1,2.5-10.2,2.5c-4.3,0-6.7-0.8-9-1.9l0.8,6.1
	c2.1,0.7,4.7,1.2,8.2,1.2c2.1,0,3.9-0.2,5.4-0.5c-12,14.8-30.3,24.2-50.8,24.2c-12.7,0-24.5-3.6-34.5-9.9c0.6-0.3,1.1-0.5,1.6-0.8
	c2.7-1.3,5.1-2.5,10.2-2.5c5.1,0,7.4,1.1,10.2,2.5c2.9,1.4,6.2,3,12.5,3c6.3,0,9.6-1.6,12.5-3c2.7-1.3,5.1-2.5,10.2-2.5
	c3.5,0,5.7,0.5,7.6,1.3c0.2,0.1,0.4-0.1,0.4-0.3l-2.8-22.1c-1.5-0.3-3.2-0.4-5.2-0.4c-6.3,0-9.6,1.6-12.5,3
	c-2.7,1.3-5.1,2.5-10.2,2.5c-5.1,0-7.4-1.1-10.2-2.5c-2.9-1.4-6.1-2.9-12.1-3l1.3-10.6c3.9,0.2,6,1.2,8.4,2.4c2.9,1.4,6.2,3,12.5,3
	c6.3,0,9.6-1.6,12.5-3c2.7-1.3,5.1-2.5,10.2-2.5c1.5,0,2.7,0.1,3.8,0.3l-2.8-21.8c-0.3,0-0.7,0-1,0c-6.3,0-9.6,1.6-12.5,3
	c-2.7,1.3-5.1,2.5-10.2,2.5c-5.1,0-7.4-1.1-10.2-2.5c-2.1-1-4.5-2.2-8.1-2.7L61,70.7c1.7,0.5,3,1.1,4.4,1.8c2.9,1.4,6.2,3,12.5,3
	c6.3,0,9.6-1.6,12.5-3c2.7-1.3,5-2.4,9.9-2.4l-2-16c0.7-0.1,1.5-0.1,2.3-0.1c5.1,0,7.4,1.1,10.2,2.5c2.9,1.4,6.2,3,12.5,3
	s9.6-1.6,12.5-3c0.7-0.3,1.3-0.6,1.9-0.9c1.4,3,2.5,6.2,3.4,9.5c-3.4,0.6-5.6,1.6-7.7,2.6c-2.7,1.3-5.1,2.5-10.2,2.5
	c-5.1,0-7.4-1.1-10.2-2.5c-1.5-0.7-3.1-1.5-5.2-2.1l0.8,6c0.7,0.3,1.4,0.6,2.1,1c2.9,1.4,6.2,3,12.5,3s9.6-1.6,12.5-3
	c2-0.9,3.8-1.8,6.5-2.2c0.6,3.4,1,6.9,1,10.5c-4.7,0.4-7.4,1.7-9.9,2.9c-2.7,1.3-5.1,2.5-10.2,2.5c-5.1,0-7.4-1.1-10.2-2.5
	c-1-0.5-2-0.9-3.1-1.4l0.8,6.3c2.9,1.4,6.2,3,12.5,3c6.3,0,9.6-1.6,12.5-3c2.2-1.1,4.2-2,7.4-2.3C143.1,89.9,142.6,93.5,141.7,97.1z
	 M66.1,45.2c-1.5-0.7-3.2-1.3-5.3-1.7c3.4-6,9.8-10.1,17.2-10.1c7.4,0,13.8,4.1,17.2,10c-2.2,0.4-3.9,1-5.3,1.7
	c-2.6-3.8-6.9-6.3-11.8-6.3C73.1,38.9,68.7,41.4,66.1,45.2z"/></g>
</svg>
